<svg width="630" height="464" viewBox="0 0 630 464" fill="none" xmlns="http://www.w3.org/2000/svg">
<path d="M255.365 300.718L138.073 379.22L22.5552 206.402L139.848 127.9L255.365 300.718Z" fill="#F5F5F5"/>
<path d="M194.769 292.524L193.439 300.767L135.131 292.362L136.463 284.119L194.769 292.524Z" fill="#E1E1E1"/>
<path d="M165.405 263.117L173.772 264.323L164.496 321.768L156.128 320.562L165.405 263.117Z" fill="#E1E1E1"/>
<path d="M111.699 190.105C111.783 190.23 100.028 198.244 85.4487 208.002C70.8642 217.763 58.9766 225.573 58.893 225.447C58.8094 225.323 70.561 217.31 85.1466 207.549C99.7258 197.791 111.615 189.98 111.699 190.105Z" fill="#E1E1E1"/>
<path d="M154.833 179.271C154.917 179.396 135.37 192.625 111.181 208.814C86.9829 225.01 67.3056 238.033 67.2219 237.907C67.1383 237.782 86.6808 224.556 110.878 208.362C135.068 192.171 154.75 179.145 154.833 179.271Z" fill="#E1E1E1"/>
<path d="M163.48 192.206C163.564 192.331 144.017 205.56 119.828 221.749C95.6294 237.945 75.9521 250.968 75.8684 250.843C75.7848 250.718 95.3273 237.491 119.525 221.297C143.715 205.107 163.396 192.08 163.48 192.206Z" fill="#E1E1E1"/>
<path d="M172.126 205.141C172.21 205.266 152.663 218.495 128.474 234.685C104.276 250.88 84.5986 263.903 84.5139 263.778C84.4314 263.653 103.973 250.427 128.171 234.232C152.36 218.042 172.043 205.016 172.126 205.141Z" fill="#E1E1E1"/>
<path d="M180.772 218.076C180.856 218.202 161.309 231.431 137.12 247.62C112.921 263.815 93.2441 276.838 93.1604 276.713C93.0768 276.588 112.619 263.362 136.817 247.168C161.007 230.977 180.688 217.951 180.772 218.076Z" fill="#E1E1E1"/>
<path d="M629.065 388.86L530.561 454.787L433.546 309.649L532.051 243.722L629.065 388.86Z" fill="#F5F5F5"/>
<path d="M578.176 381.977L577.058 388.901L528.091 381.841L529.208 374.919L578.176 381.977Z" fill="#E1E1E1"/>
<path d="M553.516 357.282L560.543 358.294L552.752 406.538L545.725 405.524L553.516 357.282Z" fill="#E1E1E1"/>
<path d="M508.411 295.964C508.495 296.088 498.634 302.834 486.39 311.029C474.141 319.228 464.147 325.77 464.063 325.645C463.979 325.52 473.839 318.775 486.088 310.578C498.331 302.382 508.328 295.838 508.411 295.964Z" fill="#E1E1E1"/>
<path d="M544.637 286.865C544.721 286.989 528.316 298.115 508.001 311.712C487.679 325.314 471.142 336.235 471.058 336.109C470.974 335.985 487.377 324.861 507.698 311.259C528.014 297.663 544.553 286.739 544.637 286.865Z" fill="#E1E1E1"/>
<path d="M551.899 297.728C551.982 297.853 535.577 308.979 515.262 322.576C494.94 336.177 478.402 347.097 478.319 346.973C478.236 346.848 494.637 335.724 514.96 322.123C535.275 308.526 551.815 297.603 551.899 297.728Z" fill="#E1E1E1"/>
<path d="M559.16 308.591C559.243 308.716 542.839 319.842 522.523 333.439C502.202 347.04 485.665 357.961 485.581 357.836C485.497 357.712 501.899 346.587 522.221 332.986C542.536 319.389 559.076 308.466 559.16 308.591Z" fill="#E1E1E1"/>
<path d="M566.421 319.454C566.505 319.579 550.1 330.706 529.785 344.303C509.463 357.904 492.926 368.824 492.842 368.7C492.758 368.574 509.16 357.451 529.482 343.849C549.797 330.253 566.337 319.329 566.421 319.454Z" fill="#E1E1E1"/>
<path d="M291.572 292.595L184.092 235.077L268.731 76.7154L376.213 134.235L291.572 292.595Z" fill="#F5F5F5"/>
<path d="M273.172 243.057L266.354 245.394L249.045 197.514L255.864 195.177L273.172 243.057Z" fill="#E1E1E1"/>
<path d="M283.627 208.708L286.11 215.578L238.591 231.863L236.107 224.992L283.627 208.708Z" fill="#E1E1E1"/>
<path d="M317.392 138.065C317.308 138.222 306.406 132.553 293.046 125.403C279.681 118.251 268.92 112.327 269.003 112.169C269.088 112.012 279.987 117.681 293.351 124.833C306.711 131.983 317.476 137.908 317.392 138.065Z" fill="#E1E1E1"/>
<path d="M343.183 166.551C343.1 166.709 325.057 157.217 302.892 145.356C280.718 133.489 262.817 123.745 262.902 123.587C262.985 123.429 281.023 132.919 303.197 144.785C325.362 156.647 343.267 166.394 343.183 166.551Z" fill="#E1E1E1"/>
<path d="M336.848 178.404C336.764 178.562 318.723 169.071 296.556 157.208C274.383 145.342 256.482 135.599 256.566 135.441C256.65 135.283 274.688 144.772 296.862 156.638C319.027 168.501 336.932 178.247 336.848 178.404Z" fill="#E1E1E1"/>
<path d="M330.513 190.257C330.429 190.414 312.388 180.924 290.222 169.061C268.048 157.195 250.147 147.451 250.231 147.294C250.315 147.136 268.353 156.625 290.527 168.491C312.692 180.354 330.598 190.1 330.513 190.257Z" fill="#E1E1E1"/>
<path d="M324.177 202.11C324.094 202.268 306.052 192.776 283.886 180.915C261.712 169.048 243.811 159.304 243.896 159.147C243.979 158.989 262.018 168.478 284.191 180.344C306.357 192.206 324.262 201.953 324.177 202.11Z" fill="#E1E1E1"/>
<g opacity="0.199997">
<path opacity="0.199997" d="M324.741 -0.000118256H322.041V46.0061H324.741V-0.000118256Z" fill="black"/>
</g>
<path d="M67.5087 171.929C58.5972 242.12 94.5703 314.071 151.418 356.149C208.265 398.227 283.066 412.073 353.061 402.039C403.027 394.878 452.59 375.273 487.808 339.092C523.024 302.908 541.592 248.548 527.401 200.077C522.041 181.769 511.514 164.033 494.807 154.842C468.131 140.166 435.203 150.929 406.815 161.931C378.428 172.933 345.551 183.772 318.811 169.214C298.265 158.027 287.716 135.012 272.656 117.101C247.052 86.6469 205.461 70.483 166.027 75.6607C161.097 76.3082 156.222 77.2862 151.43 78.5728C109.478 89.8361 77.7613 124.324 68.6105 166.811L67.5087 171.929Z" fill="#ECECEC"/>
<path d="M260.43 101.659H386.352C386.352 101.659 374.725 45.9767 322.437 45.9767C275.928 45.9767 260.43 101.659 260.43 101.659Z" fill="#FF5C00"/>
<path d="M324.741 -0.000118256H322.041V46.0061H324.741V-0.000118256Z" fill="#FF5C00"/>
<path d="M603.753 460.06C603.753 460.211 468.643 460.333 302.014 460.333C135.329 460.333 0.247559 460.211 0.247559 460.06C0.247559 459.91 135.329 459.787 302.014 459.787C468.643 459.787 603.753 459.91 603.753 460.06Z" fill="#1A2E35"/>
<path d="M33.6486 394.553C37.1829 394.676 40.5008 396.597 42.8319 399.258C45.163 401.92 46.592 405.266 47.5066 408.684C49.2753 415.298 48.1882 423.104 46.3024 429.686C39.1471 427.127 34.7337 419.49 32.7381 415.476C29.5844 409.131 27.7352 395.746 33.6486 394.553Z" fill="#FF5C00"/>
<path d="M56.5994 437.702C54.3415 434.459 54.2882 429.948 56.0736 426.421C57.858 422.894 61.2867 420.35 65.0635 419.19C66.8103 418.654 68.8361 418.428 70.355 419.443C71.7756 420.392 72.3882 422.254 72.2052 423.954C72.0223 425.652 71.162 427.208 70.147 428.581C66.6681 433.296 62.4355 437.219 56.5994 437.702Z" fill="#FF5C00"/>
<path d="M57.3872 459.805C57.3527 459.81 57.244 459.32 57.0674 458.432C56.8761 457.451 56.6283 456.183 56.3315 454.661C55.767 451.492 54.8701 446.984 55.5485 442.001C56.1997 437.04 58.1733 432.8 60.242 430.267C61.2613 428.986 62.2355 428.079 62.9568 427.521C63.3059 427.227 63.6133 427.048 63.8087 426.91C64.0084 426.778 64.1182 426.715 64.1276 426.73C64.206 426.817 62.455 427.897 60.5201 430.481C58.5601 433.021 56.6816 437.19 56.0398 442.067C55.3729 446.949 56.1987 451.415 56.6764 454.601C56.9325 456.202 57.1395 457.499 57.2576 458.399C57.3768 459.3 57.4196 459.8 57.3872 459.805Z" fill="#1A2E35"/>
<path d="M35.9568 404.62C35.9725 404.613 36.0707 404.8 36.2453 405.163C36.4356 405.574 36.6802 406.103 36.9823 406.756C37.6147 408.144 38.5043 410.165 39.581 412.669C41.7375 417.679 44.6195 424.642 47.6279 432.401C50.6343 440.164 53.1975 447.251 54.9808 452.405C55.8725 454.981 56.577 457.073 57.0454 458.524C57.2617 459.211 57.4374 459.767 57.5743 460.2C57.6903 460.584 57.7436 460.789 57.7269 460.794C57.7112 460.8 57.6266 460.606 57.4802 460.232C57.3203 459.807 57.1164 459.261 56.8635 458.588C56.3188 457.097 55.5683 455.04 54.6505 452.523C52.7835 447.4 50.1702 440.337 47.1649 432.58C44.1585 424.826 41.3309 417.848 39.258 412.805C38.2398 410.326 37.4077 408.301 36.8056 406.833C36.538 406.164 36.3216 405.624 36.1533 405.203C36.0091 404.828 35.9411 404.627 35.9568 404.62Z" fill="#1A2E35"/>
<path d="M48.893 445.181C44.6719 437.996 36.7933 433.097 28.486 432.494C26.3703 432.341 23.8259 432.696 22.883 434.598C21.937 436.502 23.2008 438.755 24.6423 440.318C30.6394 446.816 40.7823 449.082 48.9714 445.752" fill="#FF5C00"/>
<path d="M31.7071 438.161C31.7092 438.128 32.1796 438.146 33.0315 438.21C33.458 438.239 33.9796 438.277 34.5776 438.39C35.1724 438.5 35.8665 438.566 36.6045 438.771C37.3477 438.954 38.1672 439.136 39.0161 439.441C39.8805 439.698 40.7691 440.068 41.7036 440.463C43.5476 441.301 45.5034 442.398 47.3662 443.823C49.2154 445.265 50.7771 446.877 52.0472 448.458C52.6576 449.269 53.2409 450.036 53.6957 450.817C54.1985 451.567 54.5717 452.32 54.9218 453.002C55.2982 453.669 55.5198 454.331 55.7644 454.886C56.0121 455.442 56.1668 455.942 56.2902 456.351C56.5442 457.168 56.6675 457.621 56.6351 457.631C56.5296 457.668 56.0205 455.839 54.6114 453.162C54.2445 452.501 53.8598 451.767 53.3497 451.038C52.8876 450.279 52.3001 449.533 51.6907 448.743C50.4217 447.205 48.8798 445.634 47.063 444.216C45.2337 442.817 43.3197 441.728 41.5154 440.881C40.6018 440.48 39.7321 440.1 38.8843 439.831C38.0543 439.512 37.2494 439.315 36.5208 439.112C33.5876 438.369 31.6956 438.27 31.7071 438.161Z" fill="#1A2E35"/>
<path d="M506.218 110.327C503.144 111.035 501.647 114.573 501.357 117.716C501.065 120.859 501.466 124.178 500.146 127.045C498.661 130.272 495.116 132.65 494.998 136.2C494.926 138.366 496.211 140.401 496.149 142.565C496.048 146.122 492.424 148.809 492.234 152.36C492.097 154.918 493.8 157.373 493.39 159.901C493.072 161.868 491.541 163.418 490.894 165.303C489.603 169.062 492.183 173.199 495.545 175.315C499.29 177.671 504.086 178.28 508.3 176.933C512.515 175.586 516.07 172.306 517.755 168.213C519.615 163.696 519.209 158.609 518.804 153.74C517.545 138.568 516.608 123.368 515.997 108.155" fill="#1A2E35"/>
<path d="M497.294 163.87C497.229 163.81 498.135 163.541 498.698 162.199C498.971 161.542 499.111 160.66 499.057 159.646C499.02 158.624 498.672 157.512 498.294 156.259C497.944 155.015 497.488 153.574 497.749 151.97C498.013 150.34 499.177 149.004 500.239 147.689C500.774 147.023 501.313 146.331 501.651 145.542C502.008 144.763 502.083 143.871 501.814 143.035C501.275 141.325 499.601 140.069 498.833 138.095C498.452 137.107 498.448 136.021 498.666 135.043C498.872 134.056 499.272 133.16 499.674 132.305C500.493 130.602 501.394 129.041 501.752 127.384C502.484 124.066 502.143 120.899 502.641 118.297C503.094 115.691 504.195 113.73 505.285 112.724C505.815 112.202 506.33 111.925 506.666 111.739C507.023 111.585 507.211 111.514 507.219 111.531C507.253 111.59 506.444 111.838 505.434 112.874C504.426 113.892 503.415 115.81 503.021 118.361C502.813 119.63 502.782 121.057 502.73 122.588C502.676 124.118 502.629 125.78 502.239 127.498C501.876 129.239 500.95 130.862 500.155 132.534C499.369 134.178 498.648 136.105 499.343 137.905C500.007 139.686 501.691 140.95 502.324 142.874C502.632 143.831 502.532 144.892 502.128 145.749C501.744 146.622 501.175 147.335 500.629 148.006C499.537 149.327 498.443 150.585 498.192 152.048C497.931 153.504 498.335 154.909 498.665 156.153C499.015 157.397 499.353 158.568 499.361 159.632C499.388 160.687 499.212 161.605 498.893 162.284C498.578 162.967 498.145 163.389 497.822 163.604C497.499 163.824 497.294 163.87 497.294 163.87Z" fill="#375A64"/>
<path d="M489.064 188.663L479.628 215.882L440.278 217.992L433.716 232.603L474.799 236.762C482.99 240.151 492.35 235.997 495.34 227.647L506.303 197.025L489.064 188.663Z" fill="#C78976"/>
<path d="M570.456 445.28C570.456 445.28 541.619 353.631 541.007 350.655C540.454 347.967 551.473 282.014 552.86 264.945L513.896 266.398C513.896 266.398 513.895 266.502 513.893 266.683L497.331 267.602L512.164 455.038H530.096L528.317 392.852C539.374 422.554 555.218 452.825 555.218 452.825L570.456 445.28Z" fill="#C78976"/>
<path d="M529.05 415.14C529.065 414.571 528.832 394.304 528.832 394.304C528.608 395.517 521.958 376.708 522.119 375.564C522.202 374.972 529.05 415.14 529.05 415.14Z" fill="#B66955"/>
<path d="M521.36 366.659C521.318 366.659 521.28 367.063 521.245 367.795C521.207 368.527 521.198 369.591 521.268 370.903C521.294 371.561 521.362 372.276 521.447 373.045C521.545 373.813 521.65 374.635 521.828 375.486C522.153 377.198 522.654 379.049 523.294 380.948C524.596 384.738 526.032 388.055 527.052 390.462C527.535 391.559 527.951 392.503 528.3 393.296C528.607 393.96 528.794 394.32 528.831 394.305C528.871 394.289 528.755 393.9 528.516 393.209C528.275 392.517 527.909 391.524 527.442 390.303C526.521 387.857 525.148 384.514 523.859 380.758C523.225 378.876 522.715 377.057 522.366 375.379C522.176 374.542 522.054 373.735 521.937 372.981C521.832 372.225 521.74 371.52 521.689 370.871C521.565 369.578 521.51 368.523 521.476 367.794C521.441 367.065 521.401 366.66 521.36 366.659Z" fill="#B66955"/>
<path d="M511.828 455.962L511.821 454.277L530.186 453.476L530.237 460.428L529.104 460.503C524.063 460.798 503.45 461.649 500.076 460.638C496.313 459.508 511.828 455.962 511.828 455.962Z" fill="#375A64"/>
<path d="M530.494 460.006C530.494 460.014 530.385 460.026 530.179 460.041C529.908 460.059 529.611 460.077 529.277 460.099C528.375 460.141 527.266 460.194 525.957 460.254C523.152 460.365 519.275 460.467 514.992 460.486C510.707 460.505 506.829 460.436 504.025 460.35C502.715 460.3 501.605 460.258 500.703 460.224C500.368 460.205 500.07 460.189 499.8 460.174C499.594 460.16 499.486 460.15 499.486 460.142C499.486 460.134 499.595 460.13 499.802 460.13C500.072 460.132 500.37 460.135 500.705 460.138C501.608 460.154 502.718 460.172 504.028 460.194C506.832 460.241 510.709 460.283 514.991 460.265C519.272 460.246 523.147 460.168 525.952 460.097C527.261 460.065 528.372 460.036 529.274 460.013C529.608 460.006 529.906 460.001 530.177 459.996C530.385 459.995 530.492 459.998 530.494 460.006Z" fill="#1A2E35"/>
<path d="M505.878 460.598C505.81 460.607 505.756 459.813 505.251 459.014C504.762 458.206 504.077 457.803 504.115 457.745C504.127 457.691 504.912 458.033 505.44 458.898C505.978 459.756 505.933 460.611 505.878 460.598Z" fill="#1A2E35"/>
<path d="M511.259 457.842C511.208 457.874 510.949 457.56 510.681 457.142C510.413 456.724 510.237 456.356 510.289 456.323C510.341 456.29 510.6 456.603 510.868 457.023C511.136 457.442 511.312 457.808 511.259 457.842Z" fill="#1A2E35"/>
<path d="M512.737 457.053C512.696 457.099 512.407 456.907 512.092 456.625C511.775 456.343 511.552 456.077 511.593 456.032C511.633 455.986 511.923 456.178 512.238 456.46C512.554 456.742 512.777 457.007 512.737 457.053Z" fill="#1A2E35"/>
<path d="M513.666 455.324C513.667 455.386 513.24 455.441 512.713 455.449C512.185 455.457 511.758 455.414 511.757 455.352C511.756 455.291 512.182 455.236 512.71 455.228C513.237 455.219 513.665 455.262 513.666 455.324Z" fill="#1A2E35"/>
<path d="M513.982 454.106C514.004 454.161 513.539 454.372 512.919 454.42C512.301 454.47 511.808 454.334 511.821 454.277C511.829 454.214 512.313 454.247 512.902 454.198C513.489 454.154 513.962 454.044 513.982 454.106Z" fill="#1A2E35"/>
<path d="M510.635 456.249C510.636 456.274 510.185 456.33 509.46 456.245C509.098 456.203 508.67 456.12 508.21 455.974C507.98 455.894 507.74 455.834 507.492 455.683C507.376 455.605 507.247 455.496 507.201 455.317C507.152 455.142 507.245 454.944 507.376 454.848C508.497 454.262 509.623 454.89 510.042 455.468C510.272 455.764 510.379 456.053 510.428 456.252C510.476 456.451 510.473 456.566 510.459 456.569C510.418 456.583 510.379 456.106 509.921 455.569C509.696 455.305 509.353 455.049 508.915 454.92C508.5 454.798 507.911 454.767 507.517 455.019C507.33 455.158 507.404 455.378 507.612 455.501C507.805 455.625 508.055 455.7 508.272 455.781C508.718 455.931 509.133 456.03 509.483 456.092C510.186 456.213 510.635 456.213 510.635 456.249Z" fill="#1A2E35"/>
<path d="M510.33 456.307C510.314 456.321 510.139 456.022 510.191 455.493C510.22 455.233 510.313 454.926 510.509 454.633C510.715 454.371 510.981 454.012 511.484 454.03C511.756 454.064 511.891 454.373 511.848 454.572C511.828 454.778 511.736 454.955 511.652 455.097C511.478 455.391 511.281 455.631 511.099 455.81C510.732 456.171 510.441 456.311 510.429 456.288C510.408 456.259 510.662 456.076 510.985 455.704C511.145 455.517 511.318 455.281 511.474 454.997C511.634 454.748 511.743 454.301 511.447 454.249C511.154 454.222 510.855 454.516 510.676 454.751C510.492 455.006 510.391 455.28 510.347 455.516C510.259 455.995 510.369 456.299 510.33 456.307Z" fill="#1A2E35"/>
<path d="M530.102 455.004C530.099 455.046 529.579 454.956 528.753 455.057C527.936 455.152 526.799 455.491 525.812 456.282C524.826 457.075 524.249 458.113 523.981 458.892C523.705 459.676 523.679 460.204 523.638 460.198C523.625 460.197 523.619 460.066 523.636 459.829C523.655 459.593 523.711 459.252 523.832 458.843C524.069 458.031 524.645 456.937 525.674 456.11C526.702 455.284 527.894 454.957 528.738 454.9C529.163 454.87 529.508 454.89 529.742 454.923C529.977 454.956 530.105 454.99 530.102 455.004Z" fill="#1A2E35"/>
<path d="M521.306 458.55C521.315 458.607 520.122 458.798 518.638 458.803C517.152 458.813 515.96 458.635 515.967 458.578C515.972 458.514 517.166 458.591 518.637 458.582C520.108 458.576 521.299 458.485 521.306 458.55Z" fill="#1A2E35"/>
<path d="M524.886 458.511C524.931 458.555 524.789 458.764 524.669 459.038C524.545 459.312 524.482 459.556 524.42 459.552C524.361 459.552 524.324 459.264 524.467 458.948C524.607 458.631 524.848 458.466 524.886 458.511Z" fill="#1A2E35"/>
<path d="M526.231 456.824C526.274 456.868 526.157 457.059 525.969 457.25C525.779 457.444 525.592 457.565 525.548 457.522C525.506 457.479 525.622 457.288 525.811 457.096C525.998 456.903 526.187 456.783 526.231 456.824Z" fill="#1A2E35"/>
<path d="M528.158 456.05C528.145 456.113 527.903 456.111 527.635 456.206C527.365 456.295 527.174 456.445 527.126 456.405C527.077 456.371 527.23 456.111 527.564 455.997C527.896 455.882 528.178 455.992 528.158 456.05Z" fill="#1A2E35"/>
<path d="M529.532 455.682C529.554 455.74 529.45 455.834 529.298 455.893C529.148 455.953 529.007 455.954 528.985 455.898C528.962 455.84 529.067 455.747 529.218 455.688C529.369 455.627 529.51 455.626 529.532 455.682Z" fill="#1A2E35"/>
<path d="M554.859 454.341L554.162 452.807L570.589 444.549L573.479 450.869L572.477 451.402C568 453.738 549.543 462.962 546.051 463.423C542.157 463.934 554.859 454.341 554.859 454.341Z" fill="#375A64"/>
<path d="M573.541 450.379C573.546 450.386 573.452 450.442 573.27 450.54C573.03 450.667 572.768 450.806 572.471 450.963C571.665 451.371 570.674 451.873 569.505 452.465C566.991 453.716 563.497 455.399 559.598 457.172C555.697 458.944 552.131 460.471 549.535 461.543C548.321 462.035 547.292 462.45 546.455 462.789C546.141 462.909 545.863 463.016 545.61 463.114C545.417 463.185 545.313 463.22 545.31 463.213C545.308 463.206 545.405 463.158 545.594 463.072C545.842 462.963 546.114 462.844 546.421 462.709C547.251 462.353 548.272 461.915 549.476 461.398C552.054 460.291 555.608 458.741 559.506 456.97C563.403 455.197 566.906 453.539 569.436 452.325C570.617 451.757 571.618 451.276 572.431 450.885C572.736 450.743 573.004 450.616 573.25 450.5C573.438 450.415 573.538 450.373 573.541 450.379Z" fill="#1A2E35"/>
<path d="M551.329 461.008C551.271 461.044 550.895 460.343 550.109 459.82C549.332 459.285 548.541 459.197 548.553 459.129C548.542 459.073 549.397 459.064 550.234 459.636C551.075 460.2 551.385 460.998 551.329 461.008Z" fill="#1A2E35"/>
<path d="M555.11 456.288C555.077 456.339 554.711 456.159 554.296 455.888C553.879 455.615 553.569 455.352 553.603 455.302C553.637 455.249 554 455.429 554.418 455.701C554.833 455.974 555.143 456.237 555.11 456.288Z" fill="#1A2E35"/>
<path d="M556.134 454.964C556.115 455.023 555.773 454.966 555.371 454.839C554.966 454.711 554.654 454.56 554.674 454.502C554.692 454.443 555.033 454.5 555.437 454.628C555.84 454.755 556.153 454.905 556.134 454.964Z" fill="#1A2E35"/>
<path d="M556.274 453.005C556.299 453.062 555.934 453.288 555.457 453.51C554.978 453.733 554.57 453.869 554.544 453.814C554.518 453.759 554.885 453.533 555.363 453.31C555.84 453.086 556.249 452.95 556.274 453.005Z" fill="#1A2E35"/>
<path d="M556.064 451.765C556.105 451.806 555.769 452.189 555.222 452.486C554.678 452.787 554.174 452.863 554.162 452.807C554.145 452.745 554.6 452.577 555.116 452.292C555.635 452.01 556.021 451.717 556.064 451.765Z" fill="#1A2E35"/>
<path d="M553.888 455.092C553.899 455.114 553.511 455.35 552.815 455.57C552.468 455.68 552.041 455.778 551.562 455.836C551.32 455.856 551.078 455.899 550.789 455.862C550.65 455.84 550.488 455.794 550.374 455.65C550.256 455.509 550.26 455.291 550.342 455.149C551.124 454.155 552.408 454.266 553.027 454.622C553.359 454.798 553.573 455.018 553.699 455.179C553.825 455.342 553.869 455.448 553.858 455.455C553.826 455.485 553.595 455.067 552.957 454.764C552.645 454.615 552.228 454.521 551.775 454.584C551.346 454.642 550.795 454.856 550.539 455.248C550.426 455.452 550.583 455.621 550.823 455.647C551.05 455.681 551.31 455.647 551.541 455.633C552.009 455.589 552.427 455.507 552.772 455.418C553.464 455.243 553.872 455.059 553.888 455.092Z" fill="#1A2E35"/>
<path d="M553.634 455.271C553.624 455.289 553.342 455.086 553.174 454.583C553.093 454.334 553.052 454.015 553.111 453.669C553.193 453.346 553.288 452.908 553.754 452.72C554.017 452.638 554.629 453.166 554.672 453.365C554.738 453.56 554.362 453.46 554.344 453.625C554.306 453.964 554.223 454.262 554.132 454.502C553.945 454.982 553.738 455.227 553.716 455.212C553.685 455.194 553.842 454.923 553.983 454.45C554.052 454.214 554.115 453.928 554.14 453.605C554.184 453.312 554.1 452.861 553.811 452.935C553.531 453.029 553.379 453.419 553.311 453.708C553.249 454.015 553.268 454.307 553.325 454.541C553.44 455.013 553.665 455.246 553.634 455.271Z" fill="#1A2E35"/>
<path d="M571.137 445.977C571.151 446.016 570.64 446.148 569.929 446.577C569.221 446.999 568.323 447.775 567.747 448.901C567.172 450.028 567.07 451.211 567.145 452.031C567.214 452.861 567.408 453.352 567.368 453.364C567.354 453.368 567.294 453.252 567.214 453.028C567.135 452.804 567.045 452.471 566.988 452.048C566.872 451.21 566.951 449.976 567.55 448.8C568.151 447.626 569.104 446.838 569.85 446.442C570.225 446.239 570.549 446.116 570.776 446.049C571.003 445.983 571.134 445.963 571.137 445.977Z" fill="#1A2E35"/>
<path d="M564.564 452.816C564.594 452.865 563.586 453.527 562.234 454.142C560.883 454.76 559.722 455.087 559.705 455.032C559.684 454.971 560.804 454.552 562.143 453.94C563.482 453.332 564.533 452.76 564.564 452.816Z" fill="#1A2E35"/>
<path d="M567.815 451.314C567.874 451.335 567.83 451.584 567.833 451.884C567.83 452.184 567.874 452.432 567.815 452.455C567.761 452.479 567.611 452.231 567.611 451.884C567.611 451.537 567.76 451.289 567.815 451.314Z" fill="#1A2E35"/>
<path d="M568.351 449.225C568.408 449.247 568.379 449.467 568.286 449.721C568.194 449.974 568.071 450.162 568.014 450.14C567.957 450.119 567.985 449.897 568.078 449.644C568.171 449.391 568.293 449.203 568.351 449.225Z" fill="#1A2E35"/>
<path d="M569.793 447.727C569.807 447.79 569.585 447.887 569.379 448.085C569.169 448.276 569.057 448.492 568.995 448.474C568.938 448.463 568.97 448.162 569.227 447.923C569.484 447.681 569.786 447.667 569.793 447.727Z" fill="#1A2E35"/>
<path d="M570.895 446.829C570.939 446.872 570.882 447.001 570.768 447.117C570.655 447.234 570.526 447.293 570.483 447.25C570.439 447.207 570.496 447.078 570.61 446.962C570.724 446.846 570.852 446.786 570.895 446.829Z" fill="#1A2E35"/>
<path d="M550.334 233.923L547.275 196.584L562.985 196.863C562.985 196.863 563.713 191.359 561.399 179.282C559.979 171.876 555.05 167.334 549.523 164.636L549.524 164.536L549.045 164.411C542.014 161.118 534.655 160.654 534.655 160.654L515.373 160.877C515.373 160.877 500.641 159.038 492.487 169.546C489.346 173.594 479.627 201.298 479.627 201.298L502.773 212.451L500.571 197.089C500.571 197.089 501.008 208.228 502.429 211.757C503.221 213.723 505.512 219.828 505.512 219.828L505.213 238.253L550.334 233.923Z" fill="#FF5C00"/>
<path d="M539.695 191.163L536.833 203.366H563.836L562.06 182.908L539.695 191.163Z" fill="#FF5C00"/>
<path d="M563.836 203.365C563.839 203.285 562.474 203.142 560.262 203.011C558.049 202.881 554.986 202.772 551.602 202.787C548.217 202.803 545.154 202.951 542.944 203.126C540.732 203.3 539.373 203.487 539.379 203.566C539.384 203.652 540.755 203.613 542.965 203.546C545.177 203.479 548.23 203.4 551.605 203.383C554.978 203.367 558.033 203.41 560.246 203.432C562.46 203.455 563.831 203.45 563.836 203.365Z" fill="#1A2E35"/>
<path d="M538.531 182.808C538.449 182.811 538.421 183.997 538.441 185.911C538.462 187.826 538.531 190.47 538.643 193.387C538.757 196.306 538.893 198.948 539.021 200.858C539.148 202.769 539.269 203.947 539.351 203.945C539.433 203.942 539.462 202.756 539.441 200.842C539.421 198.927 539.352 196.283 539.239 193.364C539.125 190.447 538.989 187.806 538.861 185.896C538.733 183.984 538.613 182.805 538.531 182.808Z" fill="#1A2E35"/>
<g opacity="0.300003">
<g opacity="0.300003">
<path opacity="0.300003" d="M513.96 193.377C513.96 193.377 519.962 237.902 536.833 236.724C536.833 236.724 544.429 236.633 546.871 231.582V229.593L513.96 193.377Z" fill="black"/>
</g>
</g>
<g opacity="0.300003">
<g opacity="0.300003">
<path opacity="0.300003" d="M538.531 185.432L535.301 207.26L537.392 211.09L540.834 203.601L539.379 203.565L538.531 185.432Z" fill="black"/>
</g>
</g>
<path d="M505.512 219.828C505.477 219.84 505.317 219.468 505.055 218.785C504.794 218.103 504.445 217.105 504.042 215.862C503.235 213.377 502.239 209.899 501.459 205.983C500.684 202.064 500.304 198.458 500.18 195.846C500.117 194.54 500.097 193.482 500.117 192.75C500.132 192.02 500.158 191.615 500.196 191.615C500.281 191.614 500.341 193.227 500.565 195.819C500.786 198.412 501.222 201.982 501.994 205.877C502.769 209.769 503.701 213.245 504.41 215.751C504.743 216.914 505.024 217.903 505.257 218.719C505.455 219.421 505.548 219.816 505.512 219.828Z" fill="#1A2E35"/>
<path d="M512.333 232.623C512.189 232.667 511.772 231.706 511.401 230.478C511.03 229.249 510.845 228.218 510.989 228.174C511.133 228.13 511.55 229.092 511.921 230.32C512.293 231.548 512.477 232.579 512.333 232.623Z" fill="#1A2E35"/>
<path d="M514.666 232.452C514.527 232.488 514.072 231.046 514.049 229.198C514.018 227.349 514.43 225.894 514.57 225.926C514.725 225.954 514.561 227.405 514.594 229.19C514.613 230.973 514.819 232.42 514.666 232.452Z" fill="#1A2E35"/>
<path d="M503.243 212.961C503.177 213.096 497.789 210.539 491.213 207.251C484.635 203.962 479.358 201.187 479.426 201.053C479.493 200.918 484.879 203.474 491.458 206.764C498.033 210.051 503.31 212.828 503.243 212.961Z" fill="#1A2E35"/>
<path d="M512.735 164.487C512.855 159.195 512.885 153.622 512.885 153.622C512.885 153.622 506.102 152.315 504.92 143.384C503.793 134.867 506.945 114.883 506.945 114.883C516.853 111.136 527.15 114.533 533.938 122.566L532.253 165.53C532.057 170.517 527.616 174.321 522.28 174.071C516.892 173.818 512.621 169.529 512.735 164.487Z" fill="#C78976"/>
<path d="M506.431 130.854C506.394 131.456 506.873 131.984 507.499 132.033C508.126 132.083 508.665 131.638 508.701 131.035C508.738 130.434 508.259 129.906 507.633 129.855C507.006 129.805 506.467 130.253 506.431 130.854Z" fill="#1A2E35"/>
<path d="M506.006 129.355C506.144 129.508 507.024 128.891 508.25 128.925C509.476 128.943 510.36 129.598 510.497 129.451C510.564 129.386 510.427 129.114 510.042 128.818C509.664 128.524 509.013 128.23 508.25 128.214C507.484 128.198 506.835 128.463 506.458 128.741C506.073 129.022 505.939 129.287 506.006 129.355Z" fill="#1A2E35"/>
<path d="M518.875 131.63C518.839 132.231 519.318 132.758 519.945 132.809C520.571 132.859 521.11 132.413 521.147 131.811C521.184 131.209 520.705 130.681 520.078 130.631C519.451 130.581 518.912 131.028 518.875 131.63Z" fill="#1A2E35"/>
<path d="M518.793 130.132C518.931 130.285 519.812 129.668 521.038 129.702C522.263 129.719 523.147 130.374 523.285 130.227C523.351 130.163 523.215 129.891 522.829 129.595C522.451 129.301 521.801 129.007 521.037 128.99C520.272 128.975 519.622 129.239 519.246 129.518C518.861 129.799 518.726 130.064 518.793 130.132Z" fill="#1A2E35"/>
<path d="M514.108 139.119C514.115 139.05 513.355 138.898 512.125 138.708C511.812 138.667 511.516 138.598 511.47 138.383C511.401 138.155 511.541 137.82 511.702 137.459C512.017 136.708 512.345 135.922 512.691 135.096C514.065 131.732 515.068 128.963 514.931 128.908C514.795 128.854 513.571 131.537 512.198 134.902C511.866 135.731 511.551 136.523 511.25 137.279C511.121 137.633 510.906 138.031 511.054 138.505C511.133 138.742 511.358 138.917 511.558 138.977C511.757 139.043 511.933 139.051 512.087 139.065C513.33 139.163 514.1 139.189 514.108 139.119Z" fill="#1A2E35"/>
<path d="M512.884 153.622C512.884 153.622 518.854 154.162 524.87 150.752C524.87 150.752 521.825 156.786 512.95 155.725L512.884 153.622Z" fill="#B66955"/>
<path d="M522.719 126.591C522.468 126.975 521.535 126.805 520.489 126.616C519.448 126.406 518.518 126.221 518.426 125.771C518.321 125.34 519.401 124.743 520.796 125.011C522.19 125.275 522.974 126.228 522.719 126.591Z" fill="#1A2E35"/>
<path d="M510.523 124.789C510.428 125.237 509.429 125.399 508.278 125.459C507.124 125.506 506.115 125.435 505.979 124.999C505.841 124.575 506.816 123.888 508.202 123.827C509.588 123.761 510.622 124.355 510.523 124.789Z" fill="#1A2E35"/>
<path d="M514.127 142.058C513.868 141.985 513.578 142.133 513.448 142.368C513.293 142.648 513.365 143.032 513.608 143.237C513.852 143.444 514.243 143.45 514.493 143.25C514.743 143.051 514.823 142.668 514.677 142.385C514.53 142.101 514.172 141.947 513.865 142.036" fill="#B66955"/>
<path d="M514.414 142.179C514.469 142.129 514.219 141.828 513.682 141.944C513.435 142 513.11 142.222 513.011 142.602C512.913 142.96 513.002 143.423 513.381 143.714C513.773 143.99 514.246 143.934 514.557 143.721C514.891 143.502 514.986 143.1 514.934 142.849C514.826 142.298 514.418 142.21 514.407 142.287C514.361 142.355 514.549 142.547 514.513 142.873C514.495 143.033 514.419 143.182 514.263 143.257C514.113 143.341 513.871 143.34 513.735 143.234C513.59 143.132 513.516 142.903 513.546 142.728C513.567 142.552 513.685 142.421 513.827 142.341C514.118 142.176 514.376 142.254 514.414 142.179Z" fill="#1A2E35"/>
<path d="M529.831 133.06C528.773 135.512 526.193 137.401 526.55 140.047C526.781 141.755 527.877 143.348 527.664 145.06C527.396 147.208 525.165 148.698 524.85 150.84C524.462 153.467 527.016 155.509 528.037 157.961C529.522 161.531 527.622 165.547 527.577 169.414C527.508 175.336 532.543 180.87 538.442 181.356C540.829 181.553 543.517 180.833 544.754 178.781C545.775 177.088 545.571 174.939 546.184 173.058C547.095 170.259 549.761 168.21 550.323 165.321C551.349 160.052 544.985 155.692 545.403 150.341C545.582 148.054 546.993 146.061 547.593 143.847C548.378 140.948 547.659 137.682 545.726 135.383C544.156 133.514 541.877 132.285 540.54 130.243C539.023 127.927 538.971 124.991 538.398 122.282C537.005 115.681 532.051 109.946 525.724 107.612C519.399 105.277 511.909 106.419 506.566 110.533C506.566 110.533 505.046 117.428 512.118 118.58C519.189 119.733 522.467 118.403 523.265 121.24C523.265 121.24 522.459 124.553 525.383 127.718C528.307 130.882 531.055 130.221 529.831 133.06Z" fill="#1A2E35"/>
<path d="M541.116 180.875C541.113 180.893 540.892 180.869 540.471 180.807C540.049 180.742 539.434 180.602 538.672 180.321C537.161 179.769 535.022 178.566 533.199 176.268C532.294 175.129 531.445 173.748 530.873 172.125C530.288 170.51 529.954 168.681 529.922 166.755C529.877 164.826 530.151 162.805 530.677 160.782C530.939 159.768 531.28 158.759 531.677 157.755C532.068 156.749 532.549 155.778 532.824 154.751C533.122 153.727 533.081 152.681 532.815 151.683C532.542 150.684 532.078 149.747 531.625 148.819C531.169 147.892 530.706 146.966 530.407 145.984C530.103 145.009 529.989 143.958 530.188 142.978C530.604 141.007 531.801 139.549 532.506 138.053C533.254 136.57 533.487 135.003 533.452 133.598C533.326 130.748 532.112 128.641 531.121 127.426C530.088 126.211 529.305 125.747 529.345 125.697C529.345 125.697 530.174 126.088 531.282 127.289C532.343 128.488 533.654 130.624 533.837 133.581C533.9 135.038 533.677 136.688 532.912 138.25C532.192 139.8 531.037 141.27 530.681 143.073C530.313 144.89 531.172 146.761 532.104 148.583C532.559 149.511 533.042 150.473 533.337 151.541C533.63 152.601 533.673 153.799 533.35 154.892C533.053 155.989 532.562 156.972 532.18 157.956C531.789 158.939 531.453 159.928 531.192 160.918C530.671 162.897 530.394 164.87 530.424 166.747C530.437 170.517 531.73 173.814 533.501 176.03C535.238 178.297 537.29 179.521 538.749 180.124C540.228 180.722 541.129 180.813 541.116 180.875Z" fill="#375A64"/>
<path d="M540.074 128.092C540.077 128.126 539.527 128.226 538.517 128.324C537.511 128.408 536.026 128.525 534.212 128.211C532.44 127.887 530.198 127.016 528.778 124.912C528.082 123.858 527.806 122.58 527.353 121.402C526.926 120.208 526.101 119.177 524.971 118.46C522.684 117.011 519.994 116.832 517.639 116.545C515.274 116.278 513.052 115.776 511.547 114.647C510.03 113.566 509.253 112.163 509.052 111.154C508.939 110.648 508.949 110.242 508.972 109.974C509.009 109.705 509.038 109.568 509.057 109.57C509.124 109.571 508.985 110.146 509.259 111.102C509.511 112.047 510.297 113.34 511.768 114.331C513.218 115.359 515.343 115.808 517.699 116.046C520.031 116.31 522.817 116.455 525.267 118.003C526.476 118.757 527.412 119.943 527.85 121.208C528.315 122.453 528.576 123.679 529.201 124.641C530.474 126.588 532.583 127.478 534.285 127.833C536.031 128.185 537.502 128.132 538.504 128.113C539.511 128.08 540.07 128.052 540.074 128.092Z" fill="#375A64"/>
<path d="M537.48 119.574C537.487 119.6 537.059 119.734 536.255 119.754C535.459 119.777 534.267 119.635 532.955 119.01C532.301 118.7 531.63 118.255 531.013 117.658C530.386 117.067 529.872 116.302 529.392 115.494C528.448 113.903 527.541 111.941 525.587 111.129C523.672 110.308 521.562 110.49 519.731 110.615C517.879 110.797 516.146 110.851 514.731 110.573C513.307 110.325 512.24 109.734 511.647 109.188C511.347 108.918 511.144 108.677 511.031 108.499C510.914 108.322 510.861 108.226 510.877 108.215C510.921 108.182 511.169 108.551 511.782 109.025C512.39 109.496 513.418 110.002 514.796 110.193C516.171 110.413 517.828 110.325 519.688 110.115C521.529 109.969 523.701 109.738 525.807 110.631C526.848 111.075 527.699 111.857 528.303 112.706C528.919 113.554 529.359 114.44 529.824 115.24C530.285 116.041 530.759 116.773 531.331 117.338C531.896 117.909 532.517 118.35 533.128 118.666C534.354 119.303 535.488 119.5 536.26 119.542C537.038 119.587 537.474 119.527 537.48 119.574Z" fill="#375A64"/>
<path d="M544.236 178.617C544.182 178.593 544.516 177.919 544.902 176.633C545.284 175.348 545.665 173.419 545.598 171.026C545.516 168.647 544.944 165.771 543.369 163.039C542.604 161.669 541.443 160.448 540.497 158.944C540.026 158.193 539.621 157.351 539.443 156.419C539.268 155.486 539.375 154.495 539.675 153.596C540.26 151.79 541.311 150.268 541.537 148.608C541.817 146.943 540.976 145.424 540.18 144.074C539.777 143.386 539.375 142.705 539.061 141.994C538.748 141.283 538.549 140.534 538.47 139.81C538.311 138.356 538.48 137.021 538.589 135.822C538.89 133.433 538.668 131.469 538.092 130.263C537.535 129.042 536.805 128.676 536.859 128.626C536.864 128.618 536.906 128.638 536.985 128.686C537.063 128.736 537.185 128.802 537.319 128.925C537.597 129.152 537.97 129.554 538.284 130.17C538.944 131.392 539.229 133.444 538.971 135.854C538.887 137.058 538.747 138.378 538.917 139.755C539.056 141.145 539.772 142.458 540.611 143.818C541.019 144.507 541.448 145.225 541.75 146.04C542.059 146.85 542.2 147.775 542.065 148.681C541.811 150.511 540.733 152.059 540.193 153.76C539.912 154.608 539.822 155.48 539.976 156.32C540.134 157.158 540.502 157.941 540.949 158.662C541.846 160.108 543.014 161.353 543.803 162.788C545.408 165.628 545.949 168.587 545.982 171.017C546 173.463 545.554 175.416 545.103 176.696C544.868 177.336 544.672 177.825 544.501 178.141C544.344 178.462 544.253 178.625 544.236 178.617Z" fill="#375A64"/>
<path d="M501.654 373.514C501.654 373.514 494.615 306.734 494.211 282.059C493.806 257.384 505.297 233.037 505.297 233.037L550.334 231.132C550.334 231.132 559.236 256.168 559.395 266.684C559.705 287.122 553.968 307.304 554.63 323.516L556.135 373.514" fill="#1A2E35"/>
<path d="M557.642 291.419C557.651 291.435 557.396 291.627 556.907 291.975C556.781 292.064 556.645 292.161 556.496 292.266C556.356 292.385 556.219 292.535 556.06 292.686C555.744 292.991 555.375 293.335 555.057 293.811C553.603 295.593 552.542 298.776 551.534 302.749C550.978 304.722 550.415 306.935 549.254 309.101C548.943 309.631 548.663 310.191 548.255 310.684C548.058 310.934 547.88 311.204 547.666 311.445L546.972 312.139C546.032 313.063 544.841 313.761 543.585 314.312C541.065 315.418 538.218 315.942 535.619 317.247C533.002 318.523 531.04 320.994 529.838 323.84C528.57 326.675 527.801 329.651 526.743 332.429C525.704 335.185 524.289 337.868 522.042 339.563C519.813 341.319 517.058 341.721 514.672 341.874C512.247 342.016 510.002 341.947 507.987 342.251C505.981 342.529 504.203 343.166 502.947 344.155C501.686 345.146 500.95 346.39 500.604 347.455C500.247 348.533 500.31 349.441 500.43 350.02C500.546 350.608 500.711 350.888 500.674 350.904C500.674 350.904 500.477 350.639 500.323 350.046C500.166 349.46 500.063 348.52 500.401 347.393C500.73 346.278 501.461 344.975 502.757 343.916C504.056 342.858 505.884 342.18 507.93 341.87C509.981 341.536 512.251 341.584 514.641 341.424C517.004 341.253 519.641 340.838 521.737 339.164C523.861 337.549 525.224 334.968 526.245 332.239C527.284 329.493 528.048 326.513 529.343 323.617C530.556 320.721 532.636 318.092 535.377 316.772C538.08 315.429 540.928 314.921 543.386 313.851C544.61 313.321 545.747 312.663 546.646 311.787L547.312 311.133C547.519 310.904 547.69 310.645 547.88 310.406C548.277 309.938 548.552 309.396 548.857 308.887C550.001 306.796 550.586 304.607 551.163 302.645C552.216 298.695 553.352 295.459 554.89 293.679C555.228 293.205 555.617 292.864 555.951 292.567C556.118 292.42 556.264 292.272 556.411 292.158C556.568 292.06 556.711 291.969 556.843 291.885C557.36 291.562 557.632 291.402 557.642 291.419Z" fill="#FAFAFA"/>
<path d="M557.92 260.516C557.938 260.514 557.958 260.821 557.978 261.41C557.986 261.998 557.915 262.87 557.666 263.965C557.143 266.142 555.553 269.131 552.578 271.836C551.107 273.195 549.332 274.509 547.304 275.692C545.286 276.89 543.059 278.03 540.779 279.32C538.507 280.613 536.163 282.075 534.104 284.017C532.017 285.935 530.454 288.456 529.047 291.127C527.626 293.792 526.366 296.506 524.663 298.856C523.818 300.029 522.862 301.101 521.804 302.019C520.741 302.93 519.582 303.67 518.405 304.284C516.042 305.511 513.637 306.27 511.407 306.968C509.172 307.66 507.088 308.272 505.266 309.036C503.441 309.789 501.859 310.642 500.581 311.547C499.303 312.451 498.33 313.402 497.641 314.26C496.249 315.985 495.956 317.236 495.877 317.194C495.86 317.188 495.959 316.897 496.167 316.346C496.409 315.811 496.783 315.016 497.475 314.129C498.15 313.235 499.12 312.244 500.404 311.3C501.687 310.355 503.279 309.467 505.117 308.682C506.954 307.885 509.049 307.247 511.271 306.537C513.491 305.822 515.868 305.052 518.173 303.84C519.319 303.233 520.441 302.508 521.466 301.624C522.485 300.733 523.406 299.693 524.229 298.544C525.889 296.246 527.138 293.553 528.567 290.871C529.979 288.188 531.588 285.595 533.737 283.629C535.855 281.644 538.24 280.172 540.532 278.883C542.833 277.598 545.063 276.474 547.075 275.302C549.095 274.147 550.852 272.873 552.319 271.553C555.281 268.923 556.884 266.031 557.462 263.911C558.023 261.77 557.836 260.51 557.92 260.516Z" fill="#FAFAFA"/>
<path d="M494.438 285.596C494.429 285.599 494.398 285.531 494.346 285.394C494.301 285.254 494.205 285.052 494.144 284.771C494.017 284.212 493.937 283.329 494.249 282.262C494.83 280.133 497.142 277.483 500.868 276.156C502.722 275.518 504.827 275.134 507.016 274.56C509.182 273.976 511.543 273.157 513.306 271.345C514.181 270.451 514.921 269.386 515.537 268.216C516.137 267.035 516.631 265.767 517.099 264.459C518.035 261.849 518.821 259.014 520.412 256.438C521.992 253.841 524.567 252.036 527.231 251.131C529.889 250.156 532.57 249.722 535.055 249.148C537.55 248.605 539.881 247.901 541.86 246.829C543.809 245.721 545.363 244.245 546.464 242.68C548.719 239.543 549.309 236.33 549.389 234.206C549.438 232.048 549.095 230.874 549.166 230.863C549.166 230.863 549.585 232.018 549.601 234.211C549.585 236.366 549.047 239.658 546.777 242.903C545.669 244.521 544.088 246.059 542.079 247.224C540.051 248.347 537.671 249.078 535.167 249.638C532.668 250.228 530.003 250.672 527.417 251.631C524.815 252.529 522.396 254.237 520.873 256.727C519.338 259.209 518.549 262.012 517.6 264.637C517.127 265.955 516.62 267.244 515.998 268.455C515.36 269.66 514.583 270.768 513.66 271.702C511.787 273.602 509.321 274.425 507.131 274.996C504.909 275.558 502.817 275.917 500.99 276.521C497.365 277.759 495.065 280.299 494.452 282.326C494.12 283.343 494.161 284.195 494.251 284.749C494.369 285.3 494.462 285.588 494.438 285.596Z" fill="#FAFAFA"/>
<path d="M554.046 342.062C554.065 342.06 554.089 342.285 554.119 342.718C554.144 343.15 554.11 343.797 553.926 344.607C553.557 346.218 552.314 348.422 549.975 350.257C548.824 351.187 547.431 352.038 545.83 352.719C544.234 353.405 542.469 353.946 540.625 354.521C538.784 355.096 536.852 355.698 534.972 356.586C533.079 357.454 531.332 358.723 529.827 360.343C528.302 361.94 526.986 363.687 525.527 365.227C524.073 366.779 522.421 368.057 520.709 369C517.268 370.901 513.702 371.554 510.768 371.587C507.811 371.62 505.464 370.997 503.926 370.449C503.149 370.178 502.572 369.907 502.19 369.704C501.803 369.511 501.605 369.403 501.614 369.385C501.622 369.369 501.836 369.445 502.236 369.605C502.629 369.774 503.215 370.012 503.993 370.248C505.537 370.729 507.858 371.283 510.761 371.201C513.641 371.12 517.124 370.44 520.464 368.562C522.13 367.626 523.718 366.385 525.139 364.861C526.568 363.344 527.879 361.598 529.433 359.965C530.964 358.314 532.806 356.981 534.743 356.104C536.674 355.202 538.632 354.604 540.479 354.042C542.326 353.48 544.083 352.957 545.656 352.304C547.225 351.657 548.598 350.843 549.737 349.955C552.05 348.2 553.298 346.102 553.721 344.552C554.134 342.986 553.971 342.06 554.046 342.062Z" fill="#FAFAFA"/>
<path d="M548.913 203.409L540.205 203.615C539.634 206.55 538.236 208.559 538.236 208.559C530.954 195.91 525.308 178.965 523.907 172.155C524.11 171.475 524.353 170.722 524.655 169.881C525.003 168.91 524.704 167.071 524.54 166.051C524.295 164.534 523.872 162.494 523.745 161.549C523.357 158.672 522.893 158.22 521.889 158.545C520.526 158.989 522.449 166.628 521.331 166.793C520.73 166.883 519.995 164.266 519.783 162.117C519.569 159.97 518.598 153.364 517.889 152.924C516.85 152.278 515.943 153.299 516.206 155.438C516.471 157.603 516.807 164.056 515.672 164.144C514.555 164.23 513.616 153.278 513.616 153.278C513.616 153.278 513.793 150.896 512.48 150.953C510.112 151.056 511.963 162.601 512.165 163.696C512.306 164.456 511.077 164.595 510.968 163.77C510.858 162.92 510.286 152.818 507.874 152.899C506.023 152.962 509.307 162.414 508.268 164.605C507.229 166.796 506.508 157.163 504.74 157.296C504.083 157.345 503.596 157.474 504.805 162.925C505.455 165.855 507.363 171.241 509.031 175.702C511.831 190.816 524.122 239.169 543.392 230.317C554.173 225.366 558.549 203.414 558.549 203.414L548.913 203.409Z" fill="#C78976"/>
<path d="M511.753 164.436C511.753 164.436 511.841 164.451 512.004 164.401C512.152 164.355 512.442 164.172 512.397 163.797C512.373 163.148 512.271 162.202 512.121 160.979C512.009 159.749 511.642 158.271 511.64 156.523C511.626 155.646 511.648 154.706 511.698 153.708C511.731 153.209 511.74 152.691 511.851 152.202C511.933 151.728 512.25 151.186 512.615 151.251L512.656 151.257L512.673 151.256C513.044 151.239 513.336 151.529 513.455 151.973C513.586 152.396 513.618 152.896 513.592 153.373L513.591 153.393L513.593 153.407C513.837 156.082 514.1 159.011 514.71 162.14C514.794 162.531 514.881 162.924 515.002 163.321C515.063 163.519 515.133 163.718 515.22 163.92C515.276 164.023 515.312 164.122 515.397 164.23C515.473 164.321 515.566 164.48 515.834 164.504C516.268 164.472 516.394 164.143 516.492 163.956C516.586 163.738 516.645 163.525 516.688 163.312C516.778 162.887 516.823 162.462 516.856 162.035C516.971 160.329 516.912 158.589 516.786 156.803C516.745 155.901 516.523 155.001 516.677 154.183C516.749 153.78 516.916 153.374 517.191 153.207C517.325 153.125 517.477 153.109 517.642 153.151C517.724 153.175 517.807 153.208 517.889 153.258C517.958 153.324 517.943 153.295 518.004 153.412C518.354 154.161 518.533 155.137 518.73 156.042C518.916 156.967 519.076 157.911 519.223 158.865C519.371 159.818 519.506 160.784 519.618 161.756C519.713 162.729 519.854 163.749 520.1 164.732C520.226 165.227 520.365 165.72 520.573 166.21C520.678 166.456 520.789 166.699 521.004 166.949C521.081 167.056 521.324 167.256 521.629 167.177C521.923 167.078 522.008 166.844 522.055 166.708C522.226 166.106 522.175 165.606 522.167 165.08C522.144 164.561 522.101 164.048 522.057 163.535C521.983 162.653 521.899 161.782 521.869 160.923C521.855 160.496 521.854 160.068 521.9 159.665C521.926 159.468 521.96 159.265 522.027 159.119C522.058 159.046 522.098 158.991 522.128 158.964C522.144 158.946 522.154 158.955 522.169 158.938L522.304 158.899C522.998 158.613 523.228 159.577 523.412 160.356C523.573 161.167 523.674 162.005 523.838 162.83C524.113 164.479 524.465 166.115 524.649 167.689C524.724 168.468 524.78 169.279 524.557 169.94C524.31 170.696 524.064 171.445 523.823 172.184L523.801 172.251L523.817 172.322C525.091 177.946 526.855 182.978 528.494 187.446C530.149 191.909 531.804 195.767 533.264 198.92C534.72 202.078 536.027 204.511 536.929 206.17C537.386 206.957 537.748 207.578 538.016 208.04C538.268 208.462 538.406 208.676 538.421 208.669C538.434 208.661 538.325 208.431 538.099 207.993C537.85 207.522 537.516 206.887 537.091 206.082C536.242 204.398 534.987 201.947 533.579 198.777C532.166 195.61 530.555 191.746 528.939 187.281C527.34 182.819 525.605 177.773 524.365 172.209L524.36 172.346C524.601 171.616 524.845 170.878 525.092 170.131C525.373 169.278 525.289 168.445 525.22 167.629C525.033 165.993 524.691 164.403 524.419 162.749C524.258 161.93 524.158 161.09 523.99 160.233C523.891 159.805 523.798 159.374 523.564 158.938C523.45 158.727 523.275 158.486 522.987 158.356C522.695 158.23 522.397 158.265 522.162 158.323L521.986 158.373C521.908 158.409 521.809 158.451 521.749 158.507C521.616 158.623 521.539 158.756 521.484 158.879C521.375 159.129 521.343 159.362 521.311 159.594C521.259 160.053 521.262 160.499 521.274 160.943C521.306 161.83 521.39 162.708 521.465 163.585C521.507 164.096 521.55 164.604 521.572 165.105C521.589 165.594 521.607 166.133 521.494 166.511C521.469 166.621 521.416 166.6 521.477 166.654L521.479 166.659C521.474 166.623 521.488 166.712 521.485 166.697L521.483 166.687C521.481 166.673 521.483 166.66 521.486 166.65C521.492 166.641 521.515 166.604 521.501 166.602C521.493 166.599 521.469 166.584 521.438 166.545C521.323 166.412 521.208 166.194 521.12 165.978C520.932 165.539 520.796 165.062 520.675 164.589C520.436 163.629 520.301 162.677 520.204 161.689C520.088 160.705 519.95 159.735 519.799 158.775C519.649 157.815 519.485 156.865 519.295 155.927C519.08 154.983 518.941 154.076 518.5 153.134C518.474 153.039 518.287 152.827 518.173 152.766C518.055 152.695 517.924 152.641 517.784 152.602C517.502 152.524 517.158 152.56 516.9 152.725C516.381 153.068 516.22 153.613 516.127 154.086C516.043 154.574 516.055 155.054 516.109 155.52C516.162 155.966 516.205 156.404 516.24 156.846C516.372 158.606 516.438 160.34 516.334 161.997C516.305 162.41 516.262 162.819 516.182 163.206C516.145 163.399 516.092 163.586 516.025 163.748C515.991 163.826 515.949 163.901 515.911 163.943C515.871 164.03 515.839 163.923 515.842 164.064C515.895 163.957 515.844 164.016 515.803 163.926C515.758 163.877 515.72 163.783 515.679 163.71C515.604 163.539 515.54 163.358 515.481 163.173C515.365 162.802 515.276 162.417 515.191 162.037C514.571 158.965 514.28 156.027 514.01 153.371V153.405C514.033 152.867 513.998 152.353 513.84 151.849C513.76 151.6 513.643 151.348 513.431 151.153C513.223 150.951 512.924 150.861 512.657 150.869L512.714 150.875C512.295 150.801 511.988 151.055 511.813 151.308C511.634 151.568 511.554 151.849 511.492 152.12C511.377 152.669 511.379 153.191 511.352 153.692C511.314 154.698 511.306 155.645 511.336 156.53C511.37 158.315 511.771 159.793 511.912 161.008C512.094 162.223 512.23 163.166 512.29 163.803C512.354 164.105 512.112 164.3 511.984 164.35C511.838 164.414 511.751 164.423 511.753 164.436Z" fill="#B66955"/>
<path d="M443.676 217.81C443.676 217.81 440.783 217.672 437.621 218.506C432.222 219.926 422.903 225.578 422.518 232.559H429.285C429.285 232.559 425.495 240.633 426.609 239.885C429.498 237.946 435.252 232.096 435.252 232.096L443.676 217.81Z" fill="#C78976"/>
<path d="M536.006 96.2778C535.856 96.2914 535.242 90.6911 534.635 83.7708C534.026 76.8494 533.654 71.2292 533.805 71.2167C533.954 71.2031 534.568 76.8013 535.176 83.7237C535.785 90.643 536.157 96.2642 536.006 96.2778Z" fill="#1A2E35"/>
<path d="M565.702 71.5577C565.824 71.6445 561.251 78.2866 555.488 86.3911C549.725 94.4976 544.953 100.996 544.831 100.91C544.708 100.822 549.281 94.1817 555.046 86.0741C560.807 77.9708 565.579 71.4709 565.702 71.5577Z" fill="#1A2E35"/>
<path d="M578.039 101.659C578.069 101.806 572.733 103.029 566.121 104.388C559.506 105.749 554.121 106.732 554.09 106.584C554.061 106.437 559.397 105.215 566.01 103.855C572.623 102.495 578.01 101.511 578.039 101.659Z" fill="#1A2E35"/>
<path d="M222.511 245.333L185.547 435.494L180.708 460.388L427.473 459.171C438.547 459.115 448.362 449.277 451.924 434.659L495.681 255.125C498.386 244.028 492.451 232.486 484.044 232.494L234.29 232.758C228.776 232.763 223.954 237.911 222.511 245.333Z" fill="#FF5C00"/>
<g opacity="0.5">
<g opacity="0.5">
<path opacity="0.5" d="M222.511 245.333L185.547 435.494L180.708 460.388L427.473 459.171C438.547 459.115 448.362 449.277 451.924 434.659L495.681 255.125C498.386 244.028 492.451 232.486 484.044 232.494L234.29 232.758C228.776 232.763 223.954 237.911 222.511 245.333Z" fill="black"/>
</g>
</g>
<path d="M403.802 422.611L377.675 211.938C376.605 203.306 369.733 196.867 361.619 196.893L304.328 197.082C300.088 197.095 296.023 198.899 293.01 202.102L265.807 231.04L106.471 231.872C96.7334 231.922 89.253 241.141 90.5429 251.5L114.801 446.215C115.876 454.836 122.734 461.266 130.836 461.25L408.526 460.701C439.453 461.342 442.406 452.202 442.406 452.202C406.961 460.063 403.805 422.635 403.802 422.611Z" fill="#FF5C00"/>
<g opacity="0.5">
<g opacity="0.5">
<path opacity="0.5" d="M284.065 380.448L274.7 390.512L202.568 325.583L211.935 315.517L284.065 380.448Z" fill="white"/>
</g>
<g opacity="0.5">
<path opacity="0.5" d="M270.774 313.285L281.125 322.603L215.859 392.745L205.509 383.427L270.774 313.285Z" fill="white"/>
</g>
</g>
<path d="M443.455 108.559C442.787 108.273 442.307 107.622 442.273 106.847L441.857 97.1373C441.828 96.5264 442.09 95.9375 442.561 95.5484C443.032 95.1582 443.658 95.0128 444.253 95.154C445.812 95.5222 447.532 95.1823 448.971 94.22C450.298 93.335 451.186 92.0317 451.412 90.6447C451.638 89.2609 451.21 87.7306 450.239 86.444C449.198 85.0675 447.661 84.1386 446.121 83.9618C442.972 83.5989 439.574 86.012 438.699 89.2316C438.417 90.2713 437.345 90.8853 436.306 90.6029C435.249 90.3121 434.652 89.2483 434.935 88.2076C436.309 83.1481 441.526 79.5027 446.568 80.0843C449.181 80.3856 451.658 81.8458 453.351 84.0905C454.963 86.2243 455.659 88.8414 455.263 91.2723C454.863 93.7252 453.361 95.9835 451.138 97.4667C449.532 98.5389 447.69 99.1309 445.848 99.1958L446.172 106.68C446.218 107.757 445.383 108.667 444.306 108.713C444.004 108.726 443.715 108.67 443.455 108.559Z" fill="#FF5C00"/>
<path d="M446.314 112.525C446.375 113.405 445.711 114.168 444.832 114.228C443.953 114.289 443.19 113.625 443.13 112.744C443.069 111.865 443.733 111.103 444.612 111.042C445.492 110.982 446.253 111.646 446.314 112.525Z" fill="#FF5C00"/>
<path d="M409.864 94.8655C409.878 94.8655 409.909 94.65 409.959 94.2285C410.009 93.7745 410.076 93.1542 410.163 92.3593C410.21 91.5308 410.421 90.5319 410.67 89.352C410.806 88.7663 410.879 88.1146 411.094 87.4556C411.296 86.7935 411.513 86.0885 411.742 85.3438C412.754 82.4066 414.313 78.8837 416.94 75.3796C419.547 71.8817 423.213 68.4278 427.918 65.8097C430.235 64.4269 432.886 63.4635 435.664 62.6131C438.486 61.9447 441.476 61.3715 444.601 61.4458C446.165 61.3621 447.739 61.5912 449.344 61.7261C450.146 61.8035 450.935 62.0169 451.741 62.1571C452.546 62.3066 453.356 62.4635 454.146 62.7386C457.373 63.5671 460.508 65.09 463.496 66.9781C469.492 70.7531 474.542 76.8952 477.312 84.3406C478.703 88.0665 479.366 92.149 479.361 96.2744C479.445 100.406 478.645 104.605 477.175 108.556L476.703 109.75L476.641 109.908L476.705 110.055C479.327 116.098 481.898 122.025 484.39 127.767L484.829 127.267C479.431 125.192 474.196 123.18 469.174 121.249L468.981 121.174L468.828 121.322C464.485 125.532 459.298 128.379 454.046 129.863C448.778 131.348 443.471 131.424 438.644 130.567C433.808 129.71 429.453 127.858 425.822 125.479C422.179 123.099 419.259 120.206 417.007 117.266C414.772 114.293 413.299 111.245 412.189 108.522C411.21 105.74 410.61 103.271 410.32 101.226C410.196 100.205 410.086 99.2974 409.991 98.5056C409.971 97.7232 409.953 97.0579 409.939 96.5067C409.922 95.9931 409.908 95.5883 409.898 95.2818C409.886 95.0067 409.875 94.8655 409.864 94.8655C409.855 94.8655 409.847 95.0046 409.84 95.2807C409.836 95.5872 409.83 95.9931 409.824 96.5088C409.822 97.0621 409.82 97.7315 409.819 98.5192C409.9 99.3173 409.992 100.233 410.096 101.262C410.355 103.326 410.925 105.825 411.883 108.649C412.975 111.411 414.437 114.51 416.676 117.54C418.932 120.536 421.872 123.49 425.554 125.927C429.224 128.365 433.635 130.269 438.545 131.163C443.445 132.056 448.839 132 454.205 130.505C459.555 129.013 464.849 126.128 469.286 121.843L468.94 121.916C473.959 123.854 479.19 125.875 484.586 127.959L485.375 128.264L485.026 127.46C482.538 121.714 479.97 115.788 477.352 109.744L477.354 110.048L477.835 108.827C479.338 104.789 480.153 100.495 480.068 96.2713C480.071 92.0559 479.385 87.8824 477.963 84.0781C475.124 76.4726 469.957 70.2228 463.84 66.3913C460.793 64.475 457.595 62.9374 454.31 62.1037C453.505 61.8286 452.681 61.6707 451.862 61.5221C451.041 61.382 450.237 61.1675 449.423 61.0922C447.79 60.9604 446.188 60.7356 444.601 60.8266C441.425 60.7659 438.387 61.36 435.528 62.0556C432.709 62.9332 430.026 63.9279 427.683 65.3442C422.925 68.0304 419.236 71.5596 416.628 75.1233C414 78.6943 412.46 82.2737 411.48 85.2507C411.261 86.0048 411.053 86.7182 410.857 87.3897C410.652 88.0571 410.59 88.715 410.462 89.307C410.235 90.4995 410.046 91.5078 410.021 92.3415C409.965 93.1427 409.92 93.7672 409.886 94.2243C409.86 94.6479 409.852 94.8655 409.864 94.8655Z" fill="#1A2E35"/>
</svg>
