<svg width="536" height="412" viewBox="0 0 536 412" fill="none" xmlns="http://www.w3.org/2000/svg">
<path d="M215.796 408.435C103.847 408.435 12.7695 317.357 12.7695 205.408C12.7695 93.4593 103.847 2.38135 215.796 2.38135C327.745 2.38135 418.823 93.4593 418.823 205.408C418.823 253.518 401.686 300.202 370.551 336.821C370.1 337.362 369.415 337.669 368.729 337.669C368.603 337.669 368.459 337.65 368.332 337.632C365.428 337.145 362.632 336.911 359.8 336.911C358.754 336.911 357.707 336.947 356.643 337.019C342.483 337.921 327.637 343.044 309.905 353.146C294.283 362.039 282.865 371.401 275.018 381.737C271.446 386.445 266.864 393.589 265.313 400.949C265.114 401.851 264.429 402.572 263.527 402.789C247.941 406.541 231.887 408.435 215.796 408.435Z" fill="#4286F4"/>
<path d="M215.795 4.78028C326.607 4.78028 416.422 94.6135 416.422 205.408C416.422 254.942 398.455 300.274 368.709 335.269C365.823 334.782 362.865 334.512 359.798 334.512C358.716 334.512 357.598 334.548 356.479 334.62C339.523 335.702 323.288 342.755 308.712 351.053C295.382 358.647 282.448 367.992 273.104 380.276C269.009 385.67 264.535 393.029 262.966 400.443C247.831 404.087 232.048 406.035 215.795 406.035C104.982 406.035 15.167 316.202 15.167 205.39C15.149 94.5955 104.982 4.78028 215.795 4.78028ZM215.795 0C160.921 0 109.348 21.3579 70.5461 60.1594C31.7447 98.9609 10.3867 150.534 10.3867 205.408C10.3867 260.282 31.7447 311.855 70.5461 350.656C109.348 389.458 160.921 410.816 215.795 410.816C232.084 410.816 248.318 408.885 264.084 405.097C265.87 404.664 267.259 403.239 267.638 401.435C268.775 396.024 272.076 389.548 276.892 383.18C284.558 373.097 295.743 363.951 311.076 355.22C328.483 345.317 343.004 340.284 356.786 339.4C357.778 339.328 358.806 339.31 359.798 339.31C362.486 339.31 365.156 339.544 367.934 339.995C368.204 340.031 368.457 340.067 368.728 340.067C370.117 340.067 371.451 339.454 372.371 338.39C403.867 301.338 421.22 254.113 421.22 205.426C421.22 150.552 399.862 98.9789 361.061 60.1775C322.242 21.358 270.651 0 215.795 0Z" fill="#165AC7"/>
<path d="M27.7057 277.725C26.7135 277.725 25.8116 277.112 25.4688 276.174C17.0447 253.517 12.7695 229.724 12.7695 205.408C12.7695 161.501 26.5692 119.724 52.6714 84.5479C53.0502 84.0428 53.6094 83.7 54.2407 83.6098C58.552 82.9604 63.1158 82.6357 67.7879 82.6357C105.94 82.6357 142.919 103.615 144.471 104.517C144.922 104.769 145.265 105.166 145.463 105.635C148.512 112.598 155.258 129.284 152.137 134.064C151.38 135.219 150.207 135.85 148.818 135.85C148.656 135.85 148.475 135.832 148.295 135.814C143.767 135.327 139.203 135.075 134.694 135.075C116.962 135.075 105.525 138.935 105.399 138.989C52.978 159.77 34.4702 248.899 30.0507 275.723C29.8703 276.787 29.0045 277.617 27.9221 277.707C27.85 277.725 27.7778 277.725 27.7057 277.725Z" fill="#F2EEEB"/>
<path d="M67.7886 85.0349C105.742 85.0349 143.281 106.591 143.281 106.591C143.281 106.591 155.06 133.451 148.819 133.451C148.747 133.451 148.657 133.451 148.566 133.433C143.624 132.892 138.988 132.675 134.713 132.675C116.313 132.675 104.642 136.716 104.642 136.716C50.8862 158.02 32.18 248.232 27.7064 275.326C19.6069 253.553 15.1514 229.995 15.1514 205.408C15.1514 160.654 29.8169 119.345 54.5842 85.9729C58.9496 85.3235 63.3691 85.0349 67.7886 85.0349ZM67.7886 80.2546C62.9903 80.2546 58.3182 80.5974 53.8807 81.2468C52.636 81.4272 51.4996 82.1126 50.7419 83.1228C24.3331 118.713 10.3711 160.996 10.3711 205.408C10.3711 229.995 14.7004 254.076 23.2147 277.004C23.9182 278.898 25.7221 280.125 27.6883 280.125C27.8327 280.125 27.995 280.125 28.1573 280.106C30.322 279.89 32.0718 278.267 32.4145 276.12C36.7799 249.639 55.0171 161.664 106.265 141.226C107.294 140.901 118.189 137.474 134.695 137.474C139.114 137.474 143.588 137.726 148.025 138.195C148.296 138.231 148.548 138.231 148.801 138.231C151.002 138.231 152.932 137.185 154.122 135.363C155.151 133.776 158.289 128.977 147.628 104.661C147.213 103.723 146.51 102.947 145.626 102.442C144.075 101.54 106.554 80.2546 67.7886 80.2546Z" fill="#165AC7"/>
<path d="M145.099 99.6466C143.927 99.6466 142.935 98.7987 142.736 97.6623C142.357 95.4976 133.879 44.1412 155.905 11.9419C156.211 11.4909 156.662 11.1662 157.185 11.0039C176.162 5.28559 195.879 2.38135 215.775 2.38135C271.118 2.38135 322.854 24.2805 361.439 64.056C362.142 64.7776 362.305 65.8599 361.872 66.7618C361.475 67.5916 360.627 68.1147 359.725 68.1147C359.653 68.1147 359.563 68.1147 359.49 68.0967C347.134 66.852 327.905 65.3728 306.474 65.3728C264.264 65.3728 208.235 71.1994 180.96 98.925C180.509 99.376 179.896 99.6466 179.247 99.6466H145.099Z" fill="#F2EEEB"/>
<path d="M215.794 4.78028C272.273 4.78028 323.287 28.1586 359.744 65.7334C346.611 64.4165 327.598 62.9915 306.493 62.9915C261.342 62.9915 206.594 69.4855 179.265 97.2652H145.1C145.1 97.2652 136.153 45.0609 157.889 13.2946C176.217 7.77473 195.645 4.78028 215.794 4.78028ZM215.794 0C195.663 0 175.73 2.94031 156.519 8.71273C155.472 9.01939 154.57 9.68684 153.957 10.5888C131.39 43.5817 140.013 95.8582 140.392 98.0589C140.789 100.35 142.773 102.027 145.1 102.027H179.265C180.546 102.027 181.773 101.504 182.675 100.602C209.372 73.454 264.733 67.7537 306.493 67.7537C327.815 67.7537 346.972 69.2329 359.275 70.4776C359.437 70.4956 359.599 70.4956 359.762 70.4956C361.584 70.4956 363.261 69.4494 364.073 67.7898C364.939 65.9859 364.596 63.8213 363.207 62.3782C324.117 22.1516 271.786 0 215.794 0Z" fill="#165AC7"/>
<path d="M222.058 408.272C221.318 408.272 220.632 407.929 220.182 407.352C150.858 318.908 146.204 140.252 146.168 138.466C146.15 137.383 146.854 136.409 147.9 136.121L182.066 126.272C182.192 126.235 182.336 126.199 182.48 126.199C184.88 125.947 187.351 125.821 189.822 125.821C274.118 125.821 373.223 273.612 392.236 303.25C392.723 304.008 392.741 304.946 392.308 305.721C386.175 316.473 378.977 326.791 370.878 336.369C370.427 336.911 369.759 337.217 369.056 337.217C369.02 337.217 368.966 337.217 368.929 337.217C368.19 337.181 367.504 336.784 367.071 336.153L366.873 335.846C366.729 335.612 366.566 335.377 366.404 335.161C366.061 334.692 365.917 334.097 365.971 333.519C365.989 333.285 366.025 332.96 366.188 332.599C367.288 330.11 371.256 312.36 372.321 304.946C368.154 307.76 360.09 314.47 353.29 320.604C352.839 321.018 352.262 321.217 351.684 321.217C351.161 321.217 350.638 321.054 350.205 320.694L326.033 301.536C322.84 306.154 318.313 312.739 317.537 313.983C316.617 315.426 314.795 315.733 312.306 315.733C308.067 315.733 301.194 314.723 298.019 314.218L292.481 324.356C292.084 325.077 291.363 325.546 290.551 325.6L282.001 326.196C281.946 326.196 281.892 326.196 281.838 326.196C281.333 326.196 280.864 326.033 280.449 325.745L264.106 314.091L255.249 330.651C258.099 353.29 257.215 355.256 256.205 356.158C255.177 357.836 253.932 364.744 254.978 366.007C257.359 368.911 261.707 380.528 262.555 382.819C262.771 383.379 262.753 384.01 262.519 384.551L258.839 393.516C260.895 394.851 263.132 396.204 264.791 397.178C265.531 397.611 265.964 398.387 265.964 399.235C265.964 399.235 265.964 399.956 265.964 400.137C266 401.255 265.242 402.265 264.142 402.518C250.36 405.891 236.236 407.803 222.184 408.254C222.112 408.272 222.094 408.272 222.058 408.272Z" fill="#F2EEEB"/>
<path d="M189.805 128.202C273.469 128.22 373.639 278.699 390.198 304.531C384.065 315.3 376.958 325.42 369.021 334.818C368.786 334.457 368.552 334.097 368.299 333.754C368.317 333.7 368.299 333.609 368.317 333.573C369.616 330.669 375.443 304.801 374.865 301.591C374.829 301.356 374.667 301.248 374.414 301.248C371.131 301.248 351.631 318.818 351.631 318.818L325.457 298.073C325.457 298.073 316.636 310.808 315.445 312.702C315.157 313.153 313.93 313.334 312.253 313.334C306.859 313.334 296.685 311.584 296.685 311.584L290.335 323.201L281.785 323.796L263.241 310.574L252.743 330.2C252.743 330.2 255.683 353.47 254.474 354.462C253.266 355.454 250.83 364.799 253.067 367.54C255.322 370.282 260.247 383.667 260.247 383.667L255.809 394.436C258.335 396.168 261.437 398.026 263.512 399.253C263.512 399.577 263.512 399.902 263.512 400.227C250.163 403.492 236.291 405.44 222.041 405.891C152.411 317.05 148.532 138.412 148.532 138.412L182.698 128.562C185.079 128.328 187.424 128.202 189.805 128.202ZM189.805 123.421C187.244 123.421 184.7 123.548 182.211 123.818C181.94 123.854 181.652 123.908 181.399 123.981L147.234 133.83C145.141 134.425 143.734 136.355 143.77 138.52C143.788 138.971 144.853 184.176 154.485 239.663C167.455 314.452 188.921 371.383 218.307 408.849C219.208 410.004 220.597 410.689 222.077 410.689C222.131 410.689 222.167 410.689 222.221 410.689C236.436 410.256 250.722 408.308 264.684 404.899C266.867 404.358 268.382 402.373 268.328 400.118C268.328 399.956 268.328 399.794 268.328 399.65V399.289C268.328 397.593 267.426 396.024 265.965 395.176C264.45 394.274 263.043 393.426 261.762 392.632L264.684 385.525C265.135 384.425 265.171 383.18 264.756 382.044C263.241 377.931 259.507 368.208 257.018 364.835C256.657 363.355 257.433 359.279 258.118 357.673C259.814 356.032 260.427 353.127 257.685 331.156L264.901 317.663L279.025 327.729C279.837 328.306 280.811 328.613 281.803 328.613C281.911 328.613 282.02 328.613 282.128 328.595L290.678 327.999C292.302 327.891 293.763 326.953 294.538 325.528L299.265 316.869C302.854 317.411 308.501 318.15 312.253 318.15C314.02 318.15 317.7 318.15 319.504 315.3C320.136 314.308 323.419 309.51 326.503 305.036L348.673 322.606C349.539 323.291 350.603 323.634 351.649 323.634C352.804 323.634 353.94 323.219 354.842 322.407C359.442 318.258 364.746 313.749 368.894 310.466C367.343 318.511 364.818 329.533 363.952 331.697C363.717 332.202 363.591 332.762 363.555 333.357C363.447 334.493 363.753 335.63 364.421 336.568C364.565 336.766 364.709 336.983 364.836 337.181L365.052 337.506C365.882 338.751 367.253 339.544 368.75 339.616C368.84 339.616 368.931 339.616 369.021 339.616C370.428 339.616 371.763 339.003 372.665 337.921C380.854 328.234 388.142 317.807 394.347 306.912C395.231 305.361 395.177 303.467 394.221 301.969C375.1 272.133 275.345 123.439 189.805 123.421Z" fill="#165AC7"/>
<path d="M261.979 388.285C261.239 383.325 260.572 377.661 261.185 372.321C255.467 372.808 249.694 373.097 243.868 373.097C133.055 373.097 43.2222 283.264 43.2222 172.451C43.2222 130.691 55.9937 91.926 77.8206 59.8169C39.2537 96.3815 15.1719 148.063 15.1719 205.39C15.1719 316.202 105.005 406.036 215.799 406.036C232.575 406.036 248.883 403.961 264.45 400.083C263.458 396.204 262.574 392.272 261.979 388.285Z" fill="#D9D9D9"/>
<path d="M265.711 402.969C265.333 402.951 264.972 402.843 264.647 402.662C263.168 401.814 258.207 398.964 254.491 396.421C253.553 395.79 253.211 394.581 253.625 393.535L257.702 383.631C255.79 378.526 252.597 370.734 251.226 369.074C249.765 367.288 249.386 364.222 250.126 359.964C250.324 358.774 251.046 355.13 252.363 353.308C252.615 350.837 251.587 340.05 250.378 330.525C250.306 330.038 250.415 329.533 250.649 329.1L261.148 309.474C261.472 308.861 262.05 308.428 262.717 308.265C262.897 308.229 263.078 308.211 263.258 308.211C263.745 308.211 264.232 308.355 264.647 308.662L282.506 321.398L288.891 320.965L294.61 310.484C295.024 309.708 295.836 309.239 296.702 309.239C296.828 309.239 296.973 309.257 297.099 309.275C297.207 309.293 307.129 310.989 312.252 310.989C313.027 310.989 313.514 310.953 313.803 310.917C315.823 307.85 323.165 297.244 323.508 296.756C323.887 296.215 324.464 295.855 325.113 295.746C325.239 295.728 325.348 295.728 325.474 295.728C326.015 295.728 326.538 295.909 326.953 296.251L351.558 315.733C360.487 307.76 371.148 298.903 374.431 298.903C375.856 298.903 377.011 299.859 377.245 301.23C377.967 305.343 371.996 330.615 370.625 334.331C370.661 334.638 370.914 335.72 372.321 338.3C372.934 339.418 372.555 340.843 371.455 341.493C371.058 341.727 370.571 341.872 370.102 341.872C369.723 341.872 369.344 341.781 369.002 341.601C365.34 339.617 362.868 338.552 362.111 338.39C361.065 338.39 359.152 339.815 358.305 341.168C357.763 342.034 356.537 343.405 354.426 345.75C352.099 348.347 348.906 351.919 347.95 353.651C346.237 356.754 340.861 360.542 336.658 363.157L336.351 363.338C335.323 363.987 330.615 365.322 322.335 367.306C322.155 367.342 321.956 367.378 321.776 367.378C321.614 367.378 321.451 367.36 321.271 367.324C313.875 365.755 311.837 365.069 311.133 364.745C310.989 364.727 310.682 364.691 310.105 364.691C308.265 364.691 306.299 364.979 305.433 365.232C304.513 367.054 302.204 370.643 300.184 373.692L299.101 380.024C298.939 380.926 298.271 381.665 297.388 381.918L289.306 384.191C289.252 384.209 289.18 384.227 289.126 384.227C284.021 385.219 277.96 386.662 276.192 387.401C274.478 390.847 267.966 401.706 267.894 401.833C267.461 402.554 266.686 402.987 265.856 402.987C265.82 402.969 265.766 402.969 265.711 402.969Z" fill="#B1B1B0"/>
<path d="M325.475 298.073L351.65 318.818C351.65 318.818 371.15 301.248 374.433 301.248C374.685 301.248 374.848 301.356 374.884 301.591C375.443 304.802 369.616 330.669 368.336 333.574C367.885 334.566 368.823 336.857 370.23 339.4L370.139 339.454C367.74 338.156 364.132 336.334 362.617 336.009C362.437 335.973 362.238 335.955 362.04 335.955C359.929 335.955 357.35 338.137 356.268 339.851C355.095 341.727 347.663 349.177 345.841 352.478C344.145 355.563 337.237 359.946 335.379 361.119L335.072 361.317C333.863 362.075 321.759 364.997 321.759 364.997C321.759 364.997 313.011 363.139 312.072 362.544C311.82 362.382 311.062 362.309 310.106 362.309C307.635 362.309 303.793 362.833 303.522 363.698C303.161 364.907 297.912 372.826 297.912 372.826L296.74 379.663L288.658 381.936C288.658 381.936 274.66 384.678 274.281 385.886C273.92 387.095 265.911 400.516 265.839 400.642H265.821C265.821 400.642 265.821 400.642 265.803 400.642C265.605 400.534 259.904 397.305 255.809 394.491L260.247 383.721C260.247 383.721 255.304 370.337 253.068 367.595C250.813 364.853 253.248 355.509 254.475 354.517C255.683 353.525 252.743 330.255 252.743 330.255L263.241 310.628L281.785 323.851L290.336 323.255L296.685 311.638C296.685 311.638 306.859 313.388 312.253 313.388C313.949 313.388 315.175 313.208 315.446 312.757C316.654 310.827 325.475 298.073 325.475 298.073ZM325.475 293.293C325.241 293.293 325.006 293.311 324.772 293.347C323.455 293.546 322.3 294.267 321.543 295.349C320.785 296.45 315.031 304.748 312.487 308.554C312.415 308.554 312.343 308.554 312.271 308.554C308.176 308.554 300.239 307.345 297.515 306.876C297.245 306.822 296.974 306.804 296.703 306.804C294.972 306.804 293.348 307.742 292.5 309.293L287.413 318.619L283.192 318.908L266.037 306.678C265.226 306.101 264.252 305.794 263.26 305.794C262.899 305.794 262.538 305.83 262.177 305.92C260.842 306.227 259.706 307.111 259.056 308.319L248.558 327.946C248.089 328.811 247.908 329.822 248.035 330.796C249.099 339.238 250.109 349.394 250.037 352.532C248.865 354.517 248.197 357.277 247.8 359.531C246.952 364.51 247.494 368.226 249.424 370.571C250.398 371.816 253.031 377.967 255.16 383.577L251.444 392.615C250.578 394.707 251.3 397.106 253.158 398.369C256.946 400.967 261.979 403.871 263.44 404.701C263.945 404.989 264.522 405.188 265.099 405.296L265.226 405.314C265.46 405.35 265.677 405.368 265.911 405.368C267.571 405.368 269.122 404.502 269.988 403.077C270.06 402.969 275.58 393.805 277.925 389.35C280.18 388.628 285.357 387.419 289.632 386.59C289.758 386.572 289.885 386.536 290.011 386.499L298.092 384.227C299.878 383.721 301.195 382.242 301.52 380.438L302.53 374.594C304.965 370.896 306.318 368.695 307.094 367.324C307.924 367.18 309.096 367.072 310.178 367.072C310.359 367.072 310.503 367.072 310.611 367.072C311.784 367.523 314.327 368.262 320.839 369.651C321.164 369.723 321.507 369.759 321.831 369.759C322.21 369.759 322.589 369.723 322.95 369.633C335.794 366.531 337.056 365.755 337.67 365.376L337.976 365.178C344.434 361.155 348.511 357.655 350.08 354.787C350.91 353.29 354.121 349.7 356.25 347.319C358.504 344.812 359.713 343.441 360.362 342.413C360.723 341.853 361.535 341.132 362.076 340.843C362.978 341.186 364.98 342.106 367.903 343.675C368.606 344.054 369.4 344.253 370.175 344.253C371.023 344.253 371.889 344.018 372.647 343.567L372.737 343.513C374.938 342.196 375.695 339.364 374.451 337.109C373.657 335.666 373.296 334.818 373.152 334.367C375.01 328.415 380.421 305.217 379.646 300.779C379.213 298.254 377.084 296.486 374.487 296.468C374.487 296.468 374.469 296.468 374.451 296.468C372.863 296.468 369.598 296.558 351.505 312.576L328.488 294.339C327.586 293.654 326.54 293.293 325.475 293.293Z" fill="#165AC7"/>
<path d="M253.086 367.541C253.483 368.028 253.97 368.875 254.511 369.904C260.32 362.309 266.778 355.346 275.003 350.368C288.911 341.926 305.182 335.774 320.786 331.247C334.892 327.134 350.027 324.428 363.033 317.321C367.236 315.03 370.861 312.324 374 309.239C374.668 305.487 375.064 302.547 374.902 301.591C374.343 298.38 351.668 318.818 351.668 318.818L325.494 298.073C325.494 298.073 316.673 310.809 315.482 312.703C314.292 314.597 296.722 311.584 296.722 311.584L290.372 323.201L281.822 323.797L263.278 310.574L252.779 330.2C252.779 330.2 255.72 353.47 254.511 354.463C253.266 355.455 250.831 364.799 253.086 367.541Z" fill="#D9D9D9"/>
<path d="M187.118 118.732C187.118 103.886 175.086 91.8357 160.222 91.8357C145.376 91.8357 133.326 103.868 133.326 118.732C133.326 133.577 145.358 145.627 160.222 145.627C175.068 145.609 187.118 133.577 187.118 118.732Z" fill="#4286F4" stroke="#165AC7" stroke-width="2.6506" stroke-miterlimit="10" stroke-linecap="round" stroke-linejoin="round"/>
<path d="M176.421 118.731C176.421 109.784 169.17 102.532 160.222 102.532C151.275 102.532 144.023 109.784 144.023 118.731C144.023 127.679 151.275 134.93 160.222 134.93C169.17 134.93 176.421 127.679 176.421 118.731Z" fill="#F2EEEB" stroke="#165AC7" stroke-width="2.6506" stroke-miterlimit="10" stroke-linecap="round" stroke-linejoin="round"/>
<path d="M2 410L494 410" stroke="#165AC7" stroke-width="2.6506" stroke-miterlimit="10" stroke-linecap="round" stroke-linejoin="round"/>
<path d="M266.799 404.087C266.095 404.087 265.428 403.763 264.977 403.222C264.724 402.915 264.508 402.662 264.363 402.482C262.614 401.472 257.996 398.802 254.496 396.403C253.558 395.772 253.215 394.563 253.63 393.517L257.707 383.613C255.795 378.508 252.602 370.716 251.231 369.056C250.365 367.992 250.329 366.549 251.159 364.745C254.19 358.089 275.692 334.855 284.134 334.62C285.216 334.584 286.263 334.566 287.309 334.566C315.179 334.566 330.043 345.66 339.874 353.002C344.907 356.772 348.893 359.73 352.591 359.856C354.449 359.91 356.289 359.928 358.147 359.928C363.306 359.947 368.646 359.983 374.021 361.083C378.802 362.057 383.365 364.059 387.785 366.008C389.643 366.819 391.465 367.631 393.305 368.335C408.836 374.414 425.847 376.777 442.298 379.05C452.634 380.475 463.331 381.954 473.614 384.335C477.041 385.129 480.468 385.94 483.878 386.752C493.312 389.007 503.071 391.316 512.794 393.192C516.474 393.896 519.685 394.671 522.643 395.537C522.878 395.609 523.094 395.699 523.292 395.844C528.073 399.037 531.698 401.634 531.734 401.652C532.582 402.266 532.943 403.348 532.618 404.34C532.294 405.332 531.374 406 530.346 406C530.309 405.982 266.799 404.087 266.799 404.087Z" fill="#4286F4"/>
<path d="M287.306 336.947C329.011 336.947 339.835 361.841 352.534 362.237C359.605 362.454 366.55 361.967 373.531 363.41C380.025 364.745 386.266 368.136 392.436 370.535C418.051 380.565 446.48 380.457 473.069 386.644C486.165 389.692 499.117 392.976 512.322 395.519C515.587 396.15 518.797 396.89 521.936 397.81C526.735 401.021 530.324 403.582 530.324 403.582L266.813 401.688C266.218 400.967 265.894 400.57 265.875 400.57H265.857C265.857 400.57 265.857 400.57 265.839 400.57C265.641 400.462 259.941 397.233 255.846 394.419L260.283 383.649C260.283 383.649 255.341 370.265 253.104 367.523C250.849 364.781 276.681 337.2 284.221 336.983C285.249 336.965 286.277 336.947 287.306 336.947ZM287.306 332.167C286.241 332.167 285.159 332.185 284.059 332.221C282.435 332.275 277.51 332.401 264.09 345.443C258.047 351.324 251.03 359.261 248.973 363.735C247.44 367.09 248.342 369.309 249.388 370.553C250.362 371.798 252.996 377.949 255.124 383.559L251.408 392.597C250.542 394.689 251.264 397.088 253.122 398.351C256.495 400.66 260.843 403.204 262.791 404.322C262.881 404.43 262.989 404.574 263.116 404.719C264.017 405.801 265.352 406.451 266.759 406.451L530.252 408.345C530.252 408.345 530.27 408.345 530.288 408.345C532.363 408.345 534.203 407.01 534.834 405.043C535.483 403.059 534.762 400.895 533.066 399.686C532.922 399.578 529.368 397.052 524.57 393.841C524.173 393.571 523.74 393.372 523.271 393.228C520.241 392.326 516.958 391.532 513.205 390.811C503.555 388.953 493.814 386.644 484.398 384.407C480.97 383.595 477.561 382.784 474.133 381.99C463.743 379.573 452.992 378.094 442.602 376.65C426.294 374.396 409.428 372.069 394.149 366.08C392.382 365.394 390.596 364.601 388.72 363.789C384.192 361.804 379.502 359.748 374.469 358.72C368.877 357.565 363.411 357.547 358.126 357.529C356.322 357.529 354.464 357.511 352.642 357.457C349.702 357.367 345.986 354.589 341.278 351.089C331.212 343.549 315.969 332.167 287.306 332.167Z" fill="#165AC7"/>
</svg>
