<svg width="207" height="207" viewBox="0 0 207 207" fill="none" xmlns="http://www.w3.org/2000/svg">
<g clip-path="url(#clip0)">
<path d="M190.256 53.4195L164.882 42.1321L153.585 16.7486L125.972 19.6324L103.506 3.34033L81.0274 19.6324L53.4268 16.7486L42.1378 42.1207L16.7543 53.4195L19.6397 81.0331L3.34766 103.499L19.6397 125.977L16.7543 153.578L42.128 164.865L53.4268 190.249L81.0405 187.365L103.506 203.657L125.985 187.365L153.585 190.249L164.873 164.875L190.256 153.578L187.371 125.964L203.664 103.499L187.371 81.0201L190.256 53.4195ZM83.4743 143.562L55.1287 115.216L64.5773 105.802L83.4743 124.665L140.13 68.0096L149.578 77.4565L83.4743 143.562Z" fill="#57A4FF"/>
<path d="M206.367 101.539L190.822 80.0941L193.577 53.7569C193.727 52.3174 192.935 50.9464 191.613 50.3579L167.416 39.5906L156.648 15.3922C156.057 14.0734 154.687 13.2827 153.249 13.4262L126.907 16.1795L105.464 0.635771C104.295 -0.211924 102.714 -0.211924 101.545 0.635771L80.0999 16.1795L53.7595 13.4262C52.3233 13.2892 50.9588 14.0782 50.3605 15.3889L39.5932 39.5873L15.3948 50.3579C14.0743 50.9448 13.2821 52.3158 13.432 53.7536L16.1854 80.0941L0.64163 101.539C-0.206064 102.708 -0.206064 104.289 0.64163 105.458L16.1854 126.901L13.432 153.244C13.2804 154.681 14.0727 156.054 15.3948 156.642L39.5932 167.41L50.3605 191.608C50.9556 192.922 52.3216 193.713 53.7595 193.574L80.0999 190.819L101.545 206.365C102.714 207.212 104.295 207.212 105.464 206.365L126.907 190.819L153.249 193.574C154.687 193.719 156.055 192.929 156.648 191.611L167.416 167.413L191.613 156.642C192.933 156.054 193.725 154.685 193.577 153.247L190.822 126.905L206.367 105.461C207.217 104.292 207.217 102.708 206.367 101.539ZM184.666 124.018C184.182 124.684 183.962 125.506 184.048 126.324L186.68 151.524L163.526 161.831C162.77 162.164 162.163 162.767 161.829 163.523L151.53 186.677L126.324 184.043C125.505 183.958 124.685 184.18 124.02 184.664L103.504 199.534L82.9854 184.664C82.4164 184.248 81.7317 184.025 81.0291 184.026C80.9118 184.026 80.7944 184.026 80.695 184.043L55.4875 186.677L45.188 163.523C44.8521 162.767 44.249 162.162 43.4926 161.826L20.3261 151.524L22.9572 126.324C23.042 125.506 22.8219 124.684 22.3393 124.018L7.46883 103.499L22.3393 82.9795C22.8219 82.3127 23.042 81.4911 22.9572 80.6728L20.3261 55.4718L43.4795 45.1658C44.2359 44.8332 44.8407 44.2301 45.1749 43.4737L55.4744 20.3202L80.6819 22.9546C81.4986 23.0361 82.3186 22.8144 82.9854 22.3335L103.504 7.46297L124.024 22.3335C124.689 22.816 125.509 23.0361 126.327 22.9546L151.533 20.3202L161.832 43.4737C162.168 44.2301 162.773 44.8332 163.529 45.1691L186.683 55.4718L184.052 80.6728C183.965 81.4911 184.185 82.3127 184.67 82.9795L199.538 103.499L184.666 124.018Z" fill="#1E81CE"/>
<path d="M142.488 65.649C141.184 64.3449 139.072 64.3449 137.767 65.649L83.4726 119.944L66.9361 103.438C65.6336 102.139 63.5241 102.139 62.2216 103.438L52.7568 112.846C52.1291 113.472 51.7754 114.323 51.7754 115.21C51.7754 116.097 52.1291 116.948 52.7568 117.574L81.1024 145.919C82.4049 147.222 84.5192 147.222 85.8234 145.919L151.927 79.8137C153.23 78.5111 153.23 76.3968 151.927 75.0926L142.488 65.649ZM83.4726 138.841L59.8513 115.22L64.5723 110.51L81.1154 127.019C82.4179 128.32 84.529 128.32 85.8331 127.019L140.128 72.7289L144.855 77.4564L83.4726 138.841Z" fill="#1E81CE"/>
</g>
<defs>
<clipPath id="clip0">
<rect width="207" height="207" fill="white"/>
</clipPath>
</defs>
</svg>
