<svg width="151" height="63" viewBox="0 0 151 63" fill="none" xmlns="http://www.w3.org/2000/svg">
<path fill-rule="evenodd" clip-rule="evenodd" d="M27.3989 5.90698C18.5858 6.1648 9.42358 8.53165 0 12.8101C0.479989 32.767 10.2454 49.4276 27.3989 62.967C44.5523 49.4276 54.3175 32.767 54.7977 12.8101C45.3743 8.53165 36.2122 6.1648 27.3989 5.90698Z" fill="#341300"/>
<path fill-rule="evenodd" clip-rule="evenodd" d="M6.9262 42.974C6.81898 42.4413 6.73462 41.7121 6.71031 40.8658C6.68642 40.041 6.71904 39.0845 6.84558 38.0721C6.93431 37.3553 7.08329 36.7088 7.2489 36.1536C7.29648 35.9938 7.34676 35.8381 7.3985 35.6874C6.90002 35.2109 6.37411 34.6761 5.88456 34.1175C2.51342 30.2661 1.81546 23.1737 6.87467 20.4217L6.90584 20.3649C7.59237 20.1738 8.83951 19.916 8.83951 19.916L10.346 16.6488L8.57853 17.3061C10.7289 13.4426 12.6923 10.5172 17.1184 7.55137C17.7486 7.12876 18.4017 6.72889 19.0678 6.35826H10.7514L19.0304 3.56312C19.0336 3.56186 19.8495 3.26595 21.1501 3.06201L12.6811 0L22.4832 0.45102C30.9302 0.831114 37.6513 5.68984 42.8036 12.1165C44.6891 14.4665 45.1957 15.4485 45.1971 15.4513L46.7449 18.2727L46.7443 18.2725C46.7443 18.2725 45.4963 17.4707 44.9166 17.2554C44.3371 17.04 44.1825 16.9815 44.1825 16.9815C44.1825 16.9815 44.7622 18.1353 45.071 18.6833C45.38 19.2314 45.38 19.5639 45.38 19.5639C45.38 19.5639 47.3554 20.1425 48.0694 20.4992C51.9059 22.5788 52.3319 27.5507 50.7843 31.3138C50.4005 32.2465 49.7001 33.2185 48.913 34.118C48.4238 34.6767 47.8988 35.2117 47.4001 35.6878C47.4512 35.8374 47.5011 35.993 47.5491 36.154C47.7142 36.7092 47.8632 37.3557 47.9526 38.0726C48.0785 39.0853 48.1111 40.0414 48.0874 40.866C48.0627 41.7081 47.9792 42.4344 47.8726 42.9662L46.2949 41.6489L45.4662 38.9664L40.4612 36.7778L13.4216 35.8385L9.23347 38.8372L8.4524 41.2972L6.9262 42.974Z" fill="#FF5C00"/>
<path fill-rule="evenodd" clip-rule="evenodd" d="M24.3354 52.2256C20.5144 51.5982 17.0913 49.8706 14.441 47.0811C15.8951 50.0621 16.9791 50.4415 16.9791 50.4415C16.9791 50.4415 15.8768 49.9871 13.9518 48.4619C12.9588 47.675 12.0292 45.9787 11.3611 44.5212C11.4981 45.5561 11.6668 46.4072 11.7586 46.7978C11.9839 47.755 12.3828 48.7301 12.3828 48.7301C12.3828 48.7301 10.9348 47.1051 10.1368 45.2078C9.33936 43.3102 9.26975 39.9727 9.26975 39.9727C9.26975 39.9727 8.88846 40.5702 8.69751 42.0281C8.50676 43.4866 8.6626 43.9785 8.6626 43.9785C8.6626 43.9785 8.61065 43.785 8.38437 42.9828C8.1583 42.1807 7.98666 40.3419 8.24681 38.2516C8.39912 37.0254 8.77917 35.9626 9.06612 35.2931C7.7608 34.1204 5.95658 32.3109 5.32055 30.7636C4.27995 28.2338 4.31486 25.7743 5.63264 23.9475C6.16001 23.2164 7.13162 22.7056 8.10656 22.3543C6.27263 22.4659 4.71755 23.0386 4.71755 23.0386C4.71755 23.0386 5.2206 22.4941 7.54449 21.7034C8.64161 21.33 9.58393 21.1255 10.2729 21.0131C11.0222 18.5462 12.0445 16.2741 13.2879 14.2673C11.615 15.1662 10.8358 16.147 10.8358 16.147C10.8358 16.147 11.287 15.2687 13.0908 13.0201C15.4564 10.0709 19.7728 7.10259 23.8066 5.83855C23.0444 5.3667 22.8474 5.32902 22.1272 5.16718C21.1901 4.9563 19.4729 4.92115 19.4729 4.92115C19.4729 4.92115 21.2595 4.27103 23.7399 4.30618C26.2204 4.34133 27.2438 4.90368 27.2438 4.90368C27.2438 4.90368 26.5502 3.77897 25.3704 3.04131C24.191 2.30343 22.4216 1.88208 22.4216 1.88208C22.4216 1.88208 26.7233 2.02225 30.2962 3.67374C31.2898 4.13297 34.2177 5.75984 36.6117 7.72661C39.0434 9.72431 40.9407 12.0659 41.706 13.0201C43.5098 15.2687 43.9609 16.147 43.9609 16.147C43.9609 16.147 43.1815 15.1662 41.5082 14.2673C42.7522 16.2741 43.7743 18.5462 44.5232 21.0131C45.2128 21.1255 46.1551 21.33 47.252 21.7034C49.5759 22.4939 50.079 23.0386 50.079 23.0386C50.079 23.0386 48.5243 22.4659 46.6902 22.3543C47.6655 22.7056 48.6365 23.2164 49.1639 23.9475C50.4821 25.7743 50.517 28.234 49.4762 30.7636C48.8395 32.3107 47.0359 34.1202 45.7306 35.2931C46.018 35.9626 46.3974 37.0254 46.5499 38.2516C46.8101 40.3419 46.6382 42.1807 46.4119 42.9828C46.1859 43.785 46.1339 43.9785 46.1339 43.9785C46.1339 43.9785 46.2898 43.4864 46.099 42.0281C45.9083 40.5702 45.5266 39.9727 45.5266 39.9727C45.5266 39.9727 45.4574 43.3102 44.6599 45.2078C43.8618 47.1051 42.4139 48.7301 42.4139 48.7301C42.4139 48.7301 42.8129 47.755 43.0379 46.7978C43.1302 46.4072 43.2987 45.5561 43.4354 44.5212C42.7676 45.9787 41.8381 47.6752 40.8453 48.4619C38.92 49.9874 37.8175 50.4415 37.8175 50.4415C37.8175 50.4415 38.9021 50.0619 40.3556 47.0811C37.831 49.7378 34.6065 51.4313 31.0043 52.1284C30.5426 52.7425 29.7497 53.5509 28.499 54.1307C26.2115 55.1908 24.1176 55.073 24.1176 55.073C24.1176 55.073 24.5828 54.8372 24.796 53.6593C24.8914 53.1363 24.6421 52.6284 24.3354 52.2256Z" fill="#341300"/>
<path fill-rule="evenodd" clip-rule="evenodd" d="M12.3388 23.699C9.10457 23.0653 5.44793 24.331 6.00064 28.3393C6.22609 27.3854 6.73413 26.7139 6.73413 26.7139C5.83047 30.0339 8.65513 32.0139 11.0345 33.6806C8.51446 31.568 9.56628 28.0522 11.5523 26.4731C10.2592 25.2594 8.12548 25.8415 7.96714 27.0403C7.71863 25.3395 11.001 23.7741 12.0466 25.2831C12.6326 24.9651 12.6904 23.6472 12.3388 23.699ZM42.4592 23.699C45.6932 23.0653 49.3499 24.331 48.7972 28.3393C48.5717 27.3854 48.0637 26.7139 48.0637 26.7139C48.9673 30.0339 46.1427 32.0139 43.7635 33.6806C46.2834 31.568 45.2315 28.0522 43.2453 26.4731C44.5384 25.2594 46.6721 25.8415 46.8305 27.0403C47.079 25.3395 43.7966 23.7741 42.751 25.2831C42.165 24.9651 42.1072 23.6472 42.4592 23.699ZM33.5892 27.542C33.5892 27.542 35.4842 27.1278 36.7233 27.2409C37.9619 27.3539 38.0855 27.3913 38.0855 27.3913C38.0855 27.3913 37.0453 29.2733 35.4225 29.8883C34.5673 30.212 32.356 30.5291 31.4957 30.0762C31.4957 30.0762 32.2263 30.8541 33.5516 31.9834C34.8773 33.1125 35.8684 35.1826 35.8684 35.1826C35.6928 33.665 35.4601 32.8594 34.4563 31.6944C35.8678 31.9175 37.8499 31.7334 38.8909 30.6407C39.107 31.3859 38.3586 32.164 37.7761 32.4976C37.7761 32.4976 38.5316 32.4976 39.6215 31.3181C40.7115 30.1387 40.0549 28.238 39.4484 27.6106C38.0145 26.1292 35.1609 26.3999 33.5892 27.542ZM27.3986 25.4635C27.5102 25.4134 29.4428 23.8703 31.2512 23.3932C33.0596 22.9165 34.7937 23.268 35.9333 23.5813C37.0732 23.8951 37.8659 24.7734 37.8659 24.7734C37.8659 24.7734 37.6803 24.259 37.3086 23.732C36.9373 23.2052 36.4168 22.7536 36.4168 22.7536C36.4168 22.7536 37.9527 23.18 38.919 24.2719C39.885 25.3633 40.0959 26.0659 40.2941 26.7562C40.4921 27.4461 40.5542 27.9356 40.5542 27.9356C38.7903 25.4978 35.9141 25.7201 33.62 26.6C31.5965 27.3762 30.0874 28.6992 29.3188 28.6634C28.4554 28.6228 28.6503 27.6403 29.8266 27.3585C27.9465 27.1594 27.1526 28.7128 28.4143 29.529C30.5821 30.9317 29.9533 29.3017 31.4864 31.8251C32.18 32.9669 32.4154 33.5442 32.4154 33.5442C32.4154 33.5442 31.9849 32.1514 31.7368 31.6496C31.4893 31.1477 31.3283 30.8591 31.3283 30.8591C32.5829 31.914 34.5941 34.594 33.7064 36.3168C33.2609 37.1825 32.5721 37.1517 31.5317 37.0387C30.4913 36.9257 29.1222 36.631 29.1222 36.631C29.1222 36.631 29.9463 37.2208 31.2098 37.4152C32.473 37.6097 33.3095 37.3965 33.6191 37.2711C33.9287 37.1454 34.294 36.7752 34.294 36.7752C36.6352 38.2731 37.6072 44.6273 35.9482 45.1752C35.9482 45.1752 36.0962 44.3967 35.3336 43.5336C35.3444 43.0512 35.3807 42.2843 35.1561 41.0716C34.8573 39.4603 34.4681 38.4029 34.4681 38.4029C34.4681 38.4029 34.8309 41.2726 34.7757 42.2643C34.758 42.5791 34.7374 42.8111 34.7179 42.9813C34.5272 42.8428 34.3071 42.7058 34.0542 42.5732C34.0586 42.3868 34.0569 42.1801 34.0455 41.9511C33.9865 40.7513 33.8076 39.9443 33.8076 39.9443C33.8076 39.9443 33.7947 41.5083 33.7037 42.4023C33.359 42.246 32.9619 42.098 32.5046 41.9637C30.6133 41.4073 28.7764 40.4812 27.3988 40.4492C26.0214 40.4812 24.1845 41.4073 22.2933 41.9637C21.8359 42.098 21.4388 42.2462 21.0941 42.4023C21.0031 41.5083 20.9902 39.9443 20.9902 39.9443C20.9902 39.9443 20.8113 40.7513 20.7523 41.9511C20.7409 42.1803 20.739 42.3868 20.7436 42.5732C20.4907 42.706 20.2707 42.843 20.0799 42.9813C20.0604 42.8113 20.04 42.5791 20.0221 42.2643C19.9669 41.2726 20.3297 38.4029 20.3297 38.4029C20.3297 38.4029 19.9405 39.4603 19.6417 41.0716C19.4171 42.2845 19.4534 43.0512 19.4642 43.5336C18.7017 44.3967 18.8496 45.1752 18.8496 45.1752C17.1906 44.6273 18.1624 38.2731 20.5036 36.7752C20.5036 36.7752 20.8691 37.1454 21.1787 37.2711C21.4883 37.3963 22.3246 37.6097 23.588 37.4152C24.8515 37.2208 25.6756 36.631 25.6756 36.631C25.6756 36.631 24.3065 36.9257 23.2661 37.0387C22.2257 37.1517 21.5369 37.1825 21.0914 36.3168C20.2037 34.5938 22.2149 31.9138 23.4695 30.8591C23.4695 30.8591 23.3085 31.1477 23.061 31.6496C22.8131 32.1514 22.3824 33.5442 22.3824 33.5442C22.3824 33.5442 22.6176 32.9669 23.3114 31.8251C24.8445 29.3017 24.2157 30.9317 26.3836 29.529C27.6452 28.7126 26.8513 27.1594 24.9712 27.3585C26.1475 27.6403 26.3424 28.6228 25.4791 28.6634C24.7102 28.6994 23.2011 27.3762 21.1779 26.6C18.8839 25.7201 16.0075 25.4978 14.2436 27.9356C14.2436 27.9356 14.3057 27.4463 14.5037 26.7562C14.702 26.0659 14.9129 25.3633 15.8789 24.2719C16.8449 23.1802 18.381 22.7536 18.381 22.7536C18.381 22.7536 17.8607 23.2052 17.4892 23.732C17.1175 24.259 16.9319 24.7734 16.9319 24.7734C16.9319 24.7734 17.7246 23.8951 18.8646 23.5813C20.0041 23.2678 21.7381 22.9163 23.5466 23.3932C25.3548 23.8703 27.2874 25.4134 27.3986 25.4635ZM27.8283 35.8984C27.8283 35.8984 28.5238 34.0499 29.3559 33.4535C31.0052 32.2713 32.7186 33.9552 31.9664 35.1351C32.0443 34.6733 31.6445 33.7568 31.2599 33.6919C31.2599 33.6919 31.7098 34.163 31.5679 34.8489C31.4251 35.5345 30.8952 35.9881 29.6978 36.0356C28.5013 36.0834 27.8283 35.8984 27.8283 35.8984ZM21.2086 27.542C19.6369 26.4001 16.7834 26.1294 15.3494 27.6111C14.7427 28.2385 14.0863 30.1391 15.1763 31.3186C16.2662 32.498 17.0217 32.498 17.0217 32.498C16.4393 32.1644 15.6908 31.3863 15.9069 30.6411C16.9477 31.7338 18.9298 31.918 20.3415 31.6949C19.3377 32.8596 19.105 33.6652 18.9294 35.1831C18.9294 35.1831 19.9203 33.1128 21.2462 31.9838C22.5715 30.8545 23.3021 30.0766 23.3021 30.0766C22.4418 30.5295 20.2308 30.2124 19.3753 29.8887C17.7525 29.2737 16.7123 27.3918 16.7123 27.3918C16.7123 27.3918 16.8357 27.3541 18.0745 27.2413C19.3136 27.1278 21.2086 27.542 21.2086 27.542ZM26.9693 35.8984C26.9693 35.8984 26.2738 34.0499 25.4419 33.4535C23.7924 32.2713 22.079 33.9552 22.8312 35.1351C22.7533 34.6733 23.1531 33.7568 23.5377 33.6919C23.5377 33.6919 23.0878 34.163 23.2298 34.8489C23.3725 35.5345 23.9024 35.9881 25.0998 36.0356C26.2965 36.0834 26.9693 35.8984 26.9693 35.8984Z" fill="#FFBA93"/>
<path fill-rule="evenodd" clip-rule="evenodd" d="M19.9637 44.8497C19.7904 45.753 20.3357 47.4843 21.4505 48.3127C22.5654 49.1409 23.3083 49.3414 23.3083 49.3414C23.3083 49.3414 23.0359 49.1533 22.9613 48.6764C22.8871 48.1997 22.8871 48.0366 22.8871 48.0366C22.8871 48.0366 23.573 49.3892 24.6483 50.1799C25.724 50.9704 26.2269 51.5502 26.5392 52.2001C26.8513 52.8502 26.2961 53.465 26.2961 53.465C26.2961 53.465 26.6778 53.7112 28.7588 51.8314C30.1915 50.5377 31.3197 48.9317 31.8845 48.0563L31.9111 48.0368C31.9111 48.0368 31.9111 48.1997 31.8367 48.6766C31.7621 49.1533 31.4897 49.3416 31.4897 49.3416C31.4897 49.3416 32.233 49.1411 33.3475 48.3129C34.4625 47.4847 35.0078 45.7533 34.8343 44.85C34.1446 41.2561 20.6536 41.2561 19.9637 44.8497Z" fill="#FF5C00"/>
<path fill-rule="evenodd" clip-rule="evenodd" d="M27.3986 24.9934C27.0854 24.6247 26.5977 24.1494 25.9133 23.746C24.5718 22.9553 22.9058 22.5941 22.9058 22.5941C22.9058 22.5941 24.838 23.1996 26.2225 24.788C26.7804 25.428 27.153 25.7978 27.3986 26.0112V24.9934Z" fill="#FFBA93"/>
<path fill-rule="evenodd" clip-rule="evenodd" d="M27.3984 24.9934C27.712 24.6247 28.1995 24.1494 28.8839 23.746C30.2254 22.9553 31.8914 22.5941 31.8914 22.5941C31.8914 22.5941 29.959 23.1996 28.5747 24.788C28.0162 25.428 27.6442 25.7978 27.3984 26.0112V24.9934Z" fill="#FFBA93"/>
<path fill-rule="evenodd" clip-rule="evenodd" d="M23.3959 35.2864C23.3959 35.2864 23.1682 35.9394 22.4831 35.6145C21.7982 35.2893 21.8674 33.9893 22.3705 32.9704C22.5774 32.5514 22.7499 32.2648 22.8824 32.0724C22.946 31.9051 23.0079 31.7561 23.0611 31.6483C23.3086 31.1464 23.4697 30.8578 23.4697 30.8578C22.215 31.9127 20.2039 34.5927 21.0915 36.3155C21.537 37.1812 22.2258 37.1504 23.2662 37.0374C24.3066 36.9244 25.6757 36.6298 25.6757 36.6298C25.6757 36.6298 24.8516 37.2195 23.5881 37.4139C22.325 37.6084 21.4884 37.3952 21.1788 37.2698C20.8692 37.1441 20.5037 36.7739 20.5037 36.7739C18.1628 38.2718 17.1907 44.626 18.8497 45.1739C18.8497 45.1739 18.7018 44.3954 19.4643 43.5323C19.4535 43.0499 19.4172 42.283 19.6418 41.0703C19.9406 39.459 20.3298 38.4016 20.3298 38.4016C20.3298 38.4016 19.967 41.2713 20.0223 42.263C20.0401 42.5778 20.0605 42.8097 20.08 42.98C20.2708 42.8415 20.4908 42.7045 20.7437 42.5719C20.7393 42.3855 20.741 42.1788 20.7524 41.9498C20.8114 40.75 20.9903 39.943 20.9903 39.943C20.9903 39.943 21.0032 41.507 21.0942 42.401C21.2492 42.3307 21.4148 42.2623 21.5913 42.196C21.4761 41.5666 21.2823 40.3097 21.3573 39.3249C21.461 37.9546 21.6519 37.8492 21.6519 37.8492C21.6519 37.8492 23.1754 38.3877 25.1105 37.7023C24.653 37.974 24.2031 38.2177 23.9345 38.3031C23.2147 38.5315 22.7116 38.5931 22.7116 38.5931C22.7116 38.5931 24.1597 38.6634 25.6604 37.9344C26.5212 37.5158 27.0797 37.1149 27.3989 36.8488C27.7183 37.1149 28.2768 37.5158 29.1377 37.9344C30.6383 38.6634 32.086 38.5931 32.086 38.5931C32.086 38.5931 31.5829 38.5315 30.8633 38.3031C30.5941 38.2177 30.1448 37.974 29.6873 37.7023C31.6222 38.3877 33.1459 37.8492 33.1459 37.8492C33.1459 37.8492 33.3366 37.9546 33.4405 39.3249C33.5155 40.3097 33.3217 41.5666 33.2066 42.1958C33.3832 42.2625 33.5486 42.3307 33.7036 42.4012C33.7946 41.5072 33.8075 39.9433 33.8075 39.9433C33.8075 39.9433 33.9864 40.7502 34.0454 41.95C34.0568 42.1792 34.0587 42.3857 34.0541 42.5721C34.307 42.7049 34.5271 42.8419 34.7178 42.9802C34.7373 42.8102 34.7579 42.578 34.7756 42.2632C34.8308 41.2715 34.468 38.4018 34.468 38.4018C34.468 38.4018 34.8572 39.4592 35.156 41.0705C35.3806 42.2834 35.3443 43.0501 35.3335 43.5325C36.0961 44.3956 35.9481 45.1741 35.9481 45.1741C37.6071 44.6262 36.6353 38.272 34.2939 36.7741C34.2939 36.7741 33.9286 37.1443 33.619 37.27C33.3094 37.3952 32.4731 37.6086 31.2097 37.4141C29.946 37.2197 29.1221 36.63 29.1221 36.63C29.1221 36.63 30.4912 36.9246 31.5316 37.0376C32.572 37.1506 33.2608 37.1814 33.7063 36.3157C34.594 34.5927 32.5828 31.9127 31.3282 30.858C31.3282 30.858 31.4892 31.1466 31.7367 31.6485C31.7901 31.7563 31.8518 31.9053 31.9156 32.0728C32.0479 32.2652 32.221 32.5518 32.4274 32.9707C32.9304 33.9895 32.9992 35.2895 32.3147 35.6147C31.6311 35.9388 31.4028 35.2895 31.4019 35.2866C31.1422 35.7229 30.6167 35.9984 29.6977 36.035C28.5991 36.0788 27.9423 35.9268 27.8417 35.9016C27.6771 35.9674 27.5279 36.0007 27.3985 36.0135C27.2688 36.0007 27.1201 35.9674 26.9555 35.9016C26.8547 35.9268 26.1977 36.079 25.0995 36.035C24.1809 35.9982 23.6552 35.7227 23.3959 35.2864ZM23.9644 30.8153C24.1381 30.8309 24.503 30.8002 25.2406 30.5461C26.3843 30.1519 27.0407 29.7197 27.3991 29.1691C27.7578 29.7197 28.4144 30.1517 29.5576 30.5461C30.2953 30.8006 30.6603 30.8309 30.834 30.8153C30.09 29.7948 30.1876 30.6752 28.4148 29.5279C27.1531 28.7115 27.9471 27.1583 29.8271 27.3574C28.6508 27.6392 28.4559 28.6217 29.3193 28.6623C30.0881 28.6983 31.5973 27.3751 33.6205 26.5989C35.9145 25.719 38.7909 25.4967 40.5548 27.9345C40.5548 27.9345 40.4926 27.4452 40.2946 26.7551C40.1068 26.1018 39.9083 25.4376 39.0685 24.443C39.434 25.2558 39.4518 26.0966 39.4518 26.0966C39.4518 26.0966 39.2266 25.8945 38.8621 25.7451C38.4981 25.5957 36.7639 25.0863 34.8385 25.5433C32.9132 26 31.1576 27.3088 30.6763 27.6163C30.1949 27.924 29.7957 27.9457 29.978 27.5769C30.1604 27.208 30.4417 27.0586 30.4417 27.0586C30.4417 27.0586 28.8204 26.8654 28.0655 27.3048C27.775 27.474 27.5481 27.6822 27.3989 27.9091C27.2495 27.6822 27.023 27.4738 26.7323 27.3048C25.9779 26.8654 24.3561 27.0586 24.3561 27.0586C24.3561 27.0586 24.6378 27.208 24.8196 27.5769C25.0021 27.9457 24.6033 27.924 24.1215 27.6163C23.6405 27.309 21.8844 26 19.9591 25.5433C18.0343 25.0863 16.3002 25.5957 15.9359 25.7451C15.5712 25.8945 15.3462 26.0966 15.3462 26.0966C15.3462 26.0966 15.3641 25.256 15.7296 24.4432C14.8899 25.4376 14.6913 26.1018 14.5036 26.7551C14.3056 27.445 14.2435 27.9345 14.2435 27.9345C16.0074 25.4967 18.8836 25.719 21.1778 26.5989C23.2012 27.3751 24.7104 28.6981 25.479 28.6623C26.3423 28.6217 26.1474 27.6392 24.9711 27.3574C26.8512 27.1583 27.6451 28.7118 26.3835 29.5279C24.6108 30.6752 24.7081 29.7948 23.9644 30.8153ZM7.93963 31.1537C8.80963 32.1208 9.96701 32.9319 11.0346 33.6799C8.51457 31.5673 9.56639 28.0515 11.5524 26.4724C10.2594 25.2587 8.1256 25.8409 7.96726 27.0396C7.71875 25.3389 11.0012 23.7735 12.0467 25.2825C12.2901 25.1505 12.4424 24.8452 12.512 24.5375C11.8346 24.3769 10.2382 24.0734 9.20837 24.4796C7.87293 25.0066 7.42161 26.1311 7.31793 26.781C7.21341 27.4311 7.59511 28.362 7.59511 28.362C7.59511 28.362 8.47987 26.2893 9.06937 27.1851C9.56203 27.9326 9.10843 30.4912 7.93963 31.1537ZM46.8584 31.1537C45.9886 32.1206 44.8314 32.9319 43.7638 33.6799C46.2837 31.5673 45.2318 28.0515 43.2456 26.4724C44.5387 25.2587 46.6724 25.8409 46.8308 27.0396C47.0793 25.3389 43.7969 23.7735 42.7513 25.2825C42.5078 25.1505 42.3556 24.8452 42.286 24.5375C42.9634 24.3769 44.5599 24.0734 45.5896 24.4796C46.9251 25.0066 47.376 26.1311 47.4801 26.781C47.584 27.4311 47.2023 28.362 47.2023 28.362C47.2023 28.362 46.3179 26.2893 45.728 27.1851C45.2362 27.9326 45.6896 30.4914 46.8584 31.1537ZM33.5895 27.5414C35.1612 26.3994 38.0148 26.1288 39.4487 27.6104C40.0554 28.2378 40.7118 30.1385 39.6218 31.3179C39.5669 31.3773 39.5127 31.4337 39.4597 31.4873C39.6949 30.1568 39.2066 29.0298 39.2066 29.0298C39.2066 29.0298 39.0159 29.9611 36.0674 30.5756C34.2509 30.9544 32.9017 30.8465 32.1336 30.7078C31.7161 30.3098 31.4961 30.0756 31.4961 30.0756C32.3563 30.5285 34.5674 30.2113 35.4228 29.8876C37.0456 29.2726 38.0858 27.3907 38.0858 27.3907C38.0858 27.3907 37.9624 27.353 36.7236 27.2402C35.4843 27.1272 33.5895 27.5414 33.5895 27.5414ZM32.8889 42.0834C32.7658 42.0422 32.6376 42.0018 32.5047 41.9628L32.4272 41.9401C32.6524 41.306 32.8756 40.6106 32.9121 40.2518C32.9886 39.4918 32.9479 38.9802 32.9479 38.9802C32.9479 38.9802 33.3057 40.4033 32.9005 42.038L32.8889 42.0834ZM22.3711 41.9399L22.2936 41.9626C22.1606 42.0016 22.0322 42.042 21.9094 42.0832L21.8977 42.038C21.4928 40.4031 21.8504 38.9802 21.8504 38.9802C21.8504 38.9802 21.8092 39.4916 21.8863 40.2518C21.9227 40.6104 22.1458 41.306 22.3711 41.9399ZM21.2089 27.5414C21.2089 27.5414 19.3139 27.1272 18.0749 27.2402C16.8362 27.3532 16.7126 27.3907 16.7126 27.3907C16.7126 27.3907 17.7528 29.2726 19.3756 29.8876C20.2309 30.2113 22.4421 30.5285 23.3024 30.0756C23.3024 30.0756 23.0823 30.3098 22.6649 30.7078C21.8969 30.8465 20.5475 30.9544 18.7311 30.5756C15.7824 29.9609 15.5914 29.0298 15.5914 29.0298C15.5914 29.0298 15.1029 30.1568 15.3385 31.4871C15.2851 31.4337 15.2311 31.3775 15.1764 31.3179C14.0864 30.1385 14.743 28.2378 15.3495 27.6104C16.7837 26.1285 19.637 26.3992 21.2089 27.5414Z" fill="#FF5C00"/>
<path fill-rule="evenodd" clip-rule="evenodd" d="M32.6741 43.8047C31.913 43.5138 29.9581 42.8906 27.2658 42.9308C23.7619 42.9836 21.6635 44.1256 21.9581 44.6175C22.2532 45.1093 24.8202 45.8472 25.9823 44.8635C27.1441 43.8798 28.5664 43.3086 30.3614 43.6601C31.2624 43.8364 31.9955 44.15 32.5141 44.3687C33.8849 44.9466 33.5468 44.1382 32.6741 43.8047Z" fill="#FFBA93"/>
<path d="M59.7881 39.0152V29.3374H62.4361V33.2638L65.7257 29.3374H68.8651L65.248 33.4988L68.988 39.0152H65.8076L63.4053 35.4205L62.4361 36.5128V39.0152H59.7881Z" fill="#341300"/>
<path d="M69.8134 39.0152V29.3374H72.4751V39.0152H69.8134Z" fill="#341300"/>
<path d="M74.2243 39.0152V29.3374H76.6949L80.626 34.4528V29.3374H83.2467V39.0152H80.9263L76.845 33.7062V39.0152H74.2243Z" fill="#341300"/>
<path d="M89.8144 39.2087C88.3129 39.2087 87.0708 38.7386 86.088 37.7985C85.1052 36.8492 84.6138 35.6417 84.6138 34.1763C84.6138 32.7568 85.1007 31.5632 86.0744 30.5955C87.0571 29.6277 88.2856 29.1438 89.7598 29.1438C91.2703 29.1438 92.5625 29.6139 93.6363 30.554L92.0802 32.4481C91.3613 31.8398 90.5924 31.5356 89.7734 31.5356C89.0818 31.5356 88.4995 31.7937 88.0263 32.3098C87.5622 32.826 87.3301 33.4619 87.3301 34.2177C87.3301 35.0012 87.5713 35.6464 88.0536 36.1533C88.5449 36.651 89.1683 36.8999 89.9236 36.8999C90.5424 36.8999 91.0519 36.7662 91.4523 36.4989V35.3238H89.5687V33.3606H93.9639V37.7156C92.7718 38.711 91.3886 39.2087 89.8144 39.2087Z" fill="#341300"/>
<path d="M110.652 39.0152V29.3374H113.3V33.2638L116.59 29.3374H119.729L116.112 33.4988L119.852 39.0152H116.672L114.269 35.4205L113.3 36.5128V39.0152H110.652Z" fill="#341300"/>
<path d="M128.353 37.7432C127.37 38.7202 126.146 39.2087 124.681 39.2087C123.216 39.2087 121.992 38.7248 121.009 37.757C120.036 36.78 119.549 35.5864 119.549 34.1763C119.549 32.7753 120.04 31.5863 121.023 30.6093C122.015 29.6323 123.243 29.1438 124.708 29.1438C126.173 29.1438 127.393 29.6323 128.367 30.6093C129.349 31.5771 129.841 32.7661 129.841 34.1763C129.841 35.5772 129.345 36.7662 128.353 37.7432ZM124.708 36.7893C125.427 36.7893 126.01 36.5358 126.456 36.0289C126.911 35.5219 127.138 34.9044 127.138 34.1763C127.138 33.4573 126.906 32.8444 126.442 32.3375C125.978 31.8213 125.391 31.5632 124.681 31.5632C123.971 31.5632 123.389 31.8167 122.934 32.3236C122.488 32.8306 122.265 33.4481 122.265 34.1763C122.265 34.8952 122.493 35.5127 122.948 36.0289C123.412 36.5358 123.999 36.7893 124.708 36.7893Z" fill="#341300"/>
<path d="M131.22 39.0152V29.3374H133.691L137.622 34.4528V29.3374H140.243V39.0152H137.922L133.841 33.7062V39.0152H131.22Z" fill="#341300"/>
<path d="M146.81 39.2087C145.309 39.2087 144.067 38.7386 143.084 37.7985C142.101 36.8492 141.61 35.6417 141.61 34.1763C141.61 32.7568 142.096 31.5632 143.07 30.5955C144.053 29.6277 145.281 29.1438 146.756 29.1438C148.266 29.1438 149.558 29.6139 150.632 30.554L149.076 32.4481C148.357 31.8398 147.588 31.5356 146.769 31.5356C146.078 31.5356 145.495 31.7937 145.022 32.3098C144.558 32.826 144.326 33.4619 144.326 34.2177C144.326 35.0012 144.567 35.6464 145.049 36.1533C145.541 36.651 146.164 36.8999 146.919 36.8999C147.538 36.8999 148.048 36.7662 148.448 36.4989V35.3238H146.564V33.3606H150.96V37.7156C149.768 38.711 148.384 39.2087 146.81 39.2087Z" fill="#341300"/>
<rect x="95.8579" y="33.6219" width="12.9517" height="1.17831" fill="#FF5C00"/>
</svg>
