<svg width="485" height="120" viewBox="0 0 485 120" fill="none" xmlns="http://www.w3.org/2000/svg">
<path d="M22.248 51.84C15.48 51.84 10.152 50.184 6.264 46.872C2.376 43.56 0.312 38.688 0.0719999 32.256C0.024 30.864 0 28.8 0 26.064C0 23.28 0.024 21.192 0.0719999 19.8C0.312 13.464 2.4 8.592 6.336 5.184C10.32 1.728 15.624 0 22.248 0C28.872 0 34.176 1.728 38.16 5.184C42.144 8.592 44.232 13.464 44.424 19.8C44.52 22.584 44.568 24.672 44.568 26.064C44.568 27.408 44.52 29.472 44.424 32.256C44.184 38.688 42.12 43.56 38.232 46.872C34.344 50.184 29.016 51.84 22.248 51.84ZM22.248 41.472C24.888 41.472 26.976 40.68 28.512 39.096C30.096 37.512 30.936 35.088 31.032 31.824C31.128 29.04 31.176 27.072 31.176 25.92C31.176 24.672 31.128 22.704 31.032 20.016C30.936 16.752 30.096 14.328 28.512 12.744C26.928 11.16 24.84 10.368 22.248 10.368C19.656 10.368 17.568 11.16 15.984 12.744C14.448 14.328 13.608 16.752 13.464 20.016C13.416 21.36 13.392 23.328 13.392 25.92C13.392 28.464 13.416 30.432 13.464 31.824C13.608 35.088 14.448 37.512 15.984 39.096C17.52 40.68 19.608 41.472 22.248 41.472Z" fill="#4286F4"/>
<path d="M54.7138 51.12C54.2338 51.12 53.8018 50.952 53.4178 50.616C53.0818 50.232 52.9138 49.8 52.9138 49.32V2.52C52.9138 1.992 53.0818 1.56 53.4178 1.224C53.7538 0.888 54.1858 0.719999 54.7138 0.719999H64.0018C64.5298 0.719999 64.9618 0.888 65.2978 1.224C65.6818 1.56 65.8738 1.992 65.8738 2.52V39.6H76.9618V2.52C76.9618 1.992 77.1298 1.56 77.4658 1.224C77.8498 0.888 78.2818 0.719999 78.7618 0.719999H88.1218C88.6498 0.719999 89.0818 0.888 89.4178 1.224C89.7538 1.56 89.9218 1.992 89.9218 2.52V39.6H101.01V2.52C101.01 1.992 101.178 1.56 101.514 1.224C101.898 0.888 102.33 0.719999 102.81 0.719999H112.098C112.626 0.719999 113.058 0.888 113.394 1.224C113.778 1.56 113.97 1.992 113.97 2.52V49.32C113.97 49.848 113.778 50.28 113.394 50.616C113.058 50.952 112.626 51.12 112.098 51.12H54.7138Z" fill="#4286F4"/>
<path d="M125.87 51.12C125.342 51.12 124.91 50.952 124.574 50.616C124.238 50.232 124.07 49.776 124.07 49.248V2.52C124.07 1.992 124.238 1.56 124.574 1.224C124.958 0.888 125.39 0.719999 125.87 0.719999H135.158C135.686 0.719999 136.118 0.888 136.454 1.224C136.838 1.56 137.03 1.992 137.03 2.52V31.464L157.478 2.088C158.054 1.176 158.87 0.719999 159.926 0.719999H168.278C168.806 0.719999 169.238 0.888 169.574 1.224C169.91 1.56 170.078 1.992 170.078 2.52V49.32C170.078 49.8 169.91 50.232 169.574 50.616C169.238 50.952 168.806 51.12 168.278 51.12H158.99C158.462 51.12 158.006 50.952 157.622 50.616C157.286 50.28 157.118 49.848 157.118 49.32V21.384L136.67 49.752C136.046 50.664 135.23 51.12 134.222 51.12H125.87Z" fill="#4286F4"/>
<path d="M181.979 51.12C181.499 51.12 181.067 50.952 180.683 50.616C180.347 50.232 180.179 49.8 180.179 49.32V2.52C180.179 1.992 180.347 1.56 180.683 1.224C181.067 0.888 181.499 0.719999 181.979 0.719999H216.539C217.067 0.719999 217.499 0.888 217.835 1.224C218.171 1.56 218.339 1.992 218.339 2.52V9.72C218.339 10.248 218.171 10.704 217.835 11.088C217.499 11.424 217.067 11.592 216.539 11.592H193.139V20.088H203.147C208.907 20.088 213.443 21.456 216.755 24.192C220.067 26.928 221.723 30.672 221.723 35.424C221.723 38.4 221.003 41.088 219.563 43.488C218.123 45.84 216.011 47.712 213.227 49.104C210.443 50.448 207.083 51.12 203.147 51.12H181.979ZM201.995 41.76C203.963 41.76 205.499 41.136 206.603 39.888C207.755 38.64 208.331 37.128 208.331 35.352C208.331 33.576 207.779 32.112 206.675 30.96C205.571 29.808 204.011 29.232 201.995 29.232H193.139V41.76H201.995Z" fill="#4286F4"/>
<path d="M271.06 48.672C271.204 48.864 271.276 49.128 271.276 49.464C271.276 49.944 271.108 50.352 270.772 50.688C270.484 50.976 270.1 51.12 269.62 51.12H258.964C258.292 51.12 257.788 51 257.452 50.76C257.164 50.52 256.828 50.184 256.444 49.752L245.428 31.392H240.46V49.32C240.46 49.848 240.268 50.28 239.884 50.616C239.548 50.952 239.116 51.12 238.588 51.12H229.3C228.772 51.12 228.34 50.952 228.004 50.616C227.668 50.28 227.5 49.848 227.5 49.32V2.52C227.5 1.992 227.668 1.56 228.004 1.224C228.388 0.888 228.82 0.719999 229.3 0.719999H238.588C239.116 0.719999 239.548 0.888 239.884 1.224C240.268 1.56 240.46 1.992 240.46 2.52V19.872L244.852 19.944L255.436 2.088C255.964 1.176 256.852 0.719999 258.1 0.719999H268.54C268.972 0.719999 269.332 0.864 269.62 1.152C269.908 1.44 270.052 1.8 270.052 2.232C270.052 2.424 269.956 2.712 269.764 3.096L256.372 24.984L271.06 48.672Z" fill="#4286F4"/>
<path d="M275.104 51.12C274.72 51.12 274.36 50.976 274.024 50.688C273.736 50.352 273.592 49.992 273.592 49.608C273.592 49.32 273.616 49.104 273.664 48.96L290.584 2.736C290.728 2.16 291.04 1.68 291.52 1.296C292 0.912 292.624 0.719999 293.392 0.719999H304.048C304.816 0.719999 305.44 0.912 305.92 1.296C306.4 1.68 306.712 2.16 306.856 2.736L323.704 48.96L323.848 49.608C323.848 49.992 323.68 50.352 323.344 50.688C323.056 50.976 322.696 51.12 322.264 51.12H313.408C312.256 51.12 311.488 50.616 311.104 49.608L308.296 42.264H289.072L286.336 49.608C285.952 50.616 285.16 51.12 283.96 51.12H275.104ZM305.416 31.896L298.72 12.888L292.024 31.896H305.416Z" fill="#4286F4"/>
<path d="M367.819 51.12C367.339 51.12 366.907 50.952 366.523 50.616C366.187 50.232 366.019 49.8 366.019 49.32V41.184H343.627C343.099 41.184 342.667 41.016 342.331 40.68C341.995 40.344 341.827 39.912 341.827 39.384V32.544C341.827 31.824 342.091 31.08 342.619 30.312L363.571 1.944C364.243 1.128 365.131 0.719999 366.235 0.719999H376.747C377.275 0.719999 377.707 0.888 378.043 1.224C378.379 1.56 378.547 1.992 378.547 2.52V30.456H384.883C385.459 30.456 385.915 30.648 386.251 31.032C386.587 31.368 386.755 31.776 386.755 32.256V39.384C386.755 39.912 386.587 40.344 386.251 40.68C385.915 41.016 385.483 41.184 384.955 41.184H378.547V49.32C378.547 49.8 378.379 50.232 378.043 50.616C377.707 50.952 377.275 51.12 376.747 51.12H367.819ZM366.307 30.96V13.968L354.211 30.96H366.307Z" fill="#4286F4"/>
<path d="M413.368 51.84C406.744 51.792 401.728 50.04 398.32 46.584C394.912 43.08 393.064 38.496 392.776 32.832C392.68 30.24 392.632 27.936 392.632 25.92C392.632 23.856 392.68 21.48 392.776 18.792C392.968 15.192 393.832 12 395.368 9.216C396.952 6.384 399.256 4.152 402.28 2.52C405.304 0.840001 409 0 413.368 0C419.848 0.0479994 424.84 1.8 428.344 5.256C431.848 8.712 433.744 13.224 434.032 18.792C434.128 21.48 434.176 23.856 434.176 25.92C434.176 27.936 434.128 30.24 434.032 32.832C433.696 38.496 431.824 43.08 428.416 46.584C425.008 50.04 419.992 51.792 413.368 51.84ZM413.368 41.4C415.72 41.4 417.472 40.632 418.624 39.096C419.824 37.512 420.472 35.304 420.568 32.472C420.664 31.08 420.712 28.848 420.712 25.776C420.712 22.704 420.664 20.52 420.568 19.224C420.472 16.488 419.848 14.328 418.696 12.744C417.544 11.16 415.768 10.344 413.368 10.296C411.016 10.344 409.24 11.16 408.04 12.744C406.888 14.328 406.264 16.488 406.168 19.224C406.12 20.52 406.096 22.704 406.096 25.776C406.096 28.848 406.12 31.08 406.168 32.472C406.408 38.424 408.808 41.4 413.368 41.4Z" fill="#4286F4"/>
<path d="M465.905 51.12C465.425 51.12 464.993 50.952 464.609 50.616C464.273 50.232 464.105 49.8 464.105 49.32V41.184H441.713C441.185 41.184 440.753 41.016 440.417 40.68C440.081 40.344 439.913 39.912 439.913 39.384V32.544C439.913 31.824 440.177 31.08 440.705 30.312L461.657 1.944C462.329 1.128 463.217 0.719999 464.321 0.719999H474.833C475.361 0.719999 475.793 0.888 476.129 1.224C476.465 1.56 476.633 1.992 476.633 2.52V30.456H482.969C483.545 30.456 484.001 30.648 484.337 31.032C484.673 31.368 484.841 31.776 484.841 32.256V39.384C484.841 39.912 484.673 40.344 484.337 40.68C484.001 41.016 483.569 41.184 483.041 41.184H476.633V49.32C476.633 49.8 476.465 50.232 476.129 50.616C475.793 50.952 475.361 51.12 474.833 51.12H465.905ZM464.393 30.96V13.968L452.297 30.96H464.393Z" fill="#4286F4"/>
<path d="M11.6415 113.96C8.01096 113.96 5.19594 113.021 3.19649 111.142C1.22335 109.264 0.171006 106.618 0.0394628 103.204C0.0131543 102.49 0 101.326 0 99.7116C0 98.0711 0.0131543 96.8804 0.0394628 96.1395C0.171006 92.7526 1.2365 90.1198 3.23595 88.2411C5.26171 86.336 8.06358 85.3834 11.6415 85.3834C13.983 85.3834 16.0219 85.7936 17.7583 86.6138C19.4946 87.4076 20.8364 88.5057 21.7835 89.9081C22.7306 91.284 23.2305 92.8452 23.2831 94.5916V94.6709C23.2831 94.8826 23.191 95.0678 23.0068 95.2266C22.849 95.3589 22.6648 95.4251 22.4544 95.4251H18.7054C18.3897 95.4251 18.1529 95.3589 17.9951 95.2266C17.8372 95.0943 17.7057 94.8429 17.6004 94.4725C17.1795 92.8055 16.4823 91.6413 15.5089 90.9798C14.5355 90.2918 13.2332 89.9478 11.6021 89.9478C7.81364 89.9478 5.8405 92.0778 5.68265 96.3379C5.65634 97.0524 5.64319 98.1504 5.64319 99.6322C5.64319 101.114 5.65634 102.239 5.68265 103.006C5.8405 107.266 7.81364 109.396 11.6021 109.396C13.2332 109.396 14.5355 109.052 15.5089 108.364C16.5086 107.676 17.2058 106.512 17.6004 104.871C17.6794 104.501 17.7977 104.25 17.9556 104.117C18.1398 103.985 18.3897 103.919 18.7054 103.919H22.4544C22.6911 103.919 22.8885 103.998 23.0463 104.157C23.2305 104.316 23.3094 104.514 23.2831 104.752C23.2305 106.499 22.7306 108.073 21.7835 109.475C20.8364 110.851 19.4946 111.949 17.7583 112.77C16.0219 113.563 13.983 113.96 11.6415 113.96Z" fill="#4286F4"/>
<path d="M34.9875 113.563C34.7244 113.563 34.5008 113.471 34.3167 113.286C34.1325 113.1 34.0404 112.876 34.0404 112.611V90.6622H26.7398C26.4767 90.6622 26.2531 90.5696 26.0689 90.3844C25.8848 90.1992 25.7927 89.9743 25.7927 89.7097V86.7726C25.7927 86.4815 25.8716 86.2434 26.0294 86.0582C26.2136 85.8729 26.4504 85.7803 26.7398 85.7803H46.8658C47.1552 85.7803 47.392 85.8729 47.5762 86.0582C47.7603 86.2434 47.8524 86.4815 47.8524 86.7726V89.7097C47.8524 89.9743 47.7603 90.1992 47.5762 90.3844C47.392 90.5696 47.1552 90.6622 46.8658 90.6622H39.6047V112.611C39.6047 112.876 39.5126 113.1 39.3284 113.286C39.1443 113.471 38.9075 113.563 38.6181 113.563H34.9875Z" fill="#4286F4"/>
<path d="M52.8038 113.563C52.5407 113.563 52.3171 113.471 52.1329 113.286C51.9487 113.1 51.8567 112.876 51.8567 112.611V86.7726C51.8567 86.4815 51.9356 86.2434 52.0934 86.0582C52.2776 85.8729 52.5144 85.7803 52.8038 85.7803H63.3798C66.5368 85.7803 69.023 86.5344 70.8383 88.0427C72.6536 89.5244 73.5612 91.7074 73.5612 94.5916C73.5612 97.4757 72.6536 99.6587 70.8383 101.14C69.0493 102.596 66.5631 103.323 63.3798 103.323H57.4998V112.611C57.4998 112.876 57.4078 113.1 57.2236 113.286C57.0658 113.471 56.8421 113.563 56.5527 113.563H52.8038ZM63.1825 98.9178C64.7084 98.9178 65.8791 98.5606 66.6947 97.8462C67.5103 97.1053 67.918 96.0204 67.918 94.5916C67.918 93.2156 67.5234 92.144 66.7342 91.3767C65.9449 90.5828 64.761 90.1859 63.1825 90.1859H57.4209V98.9178H63.1825Z" fill="#4286F4"/>
<path d="M76.1729 113.563C75.9624 113.563 75.7651 113.484 75.5809 113.325C75.4231 113.167 75.3441 112.968 75.3441 112.73L75.4231 112.373L84.9336 86.7726C85.1178 86.1111 85.5782 85.7803 86.3148 85.7803H90.6163C91.3003 85.7803 91.7607 86.1111 91.9975 86.7726L101.508 112.373C101.534 112.452 101.547 112.571 101.547 112.73C101.547 112.968 101.469 113.167 101.311 113.325C101.153 113.484 100.969 113.563 100.758 113.563H97.325C96.9829 113.563 96.7198 113.484 96.5357 113.325C96.3515 113.167 96.2331 112.995 96.1805 112.809L94.3258 107.967H82.6053L80.7505 112.809C80.5401 113.312 80.1586 113.563 79.6061 113.563H76.1729ZM92.9446 103.403L88.4458 91.1385L83.9865 103.403H92.9446Z" fill="#4286F4"/>
<path d="M106.179 113.563C105.916 113.563 105.692 113.471 105.508 113.286C105.324 113.1 105.232 112.876 105.232 112.611V86.7726C105.232 86.4815 105.311 86.2434 105.468 86.0582C105.653 85.8729 105.889 85.7803 106.179 85.7803H109.77C110.059 85.7803 110.283 85.8729 110.441 86.0582C110.625 86.2434 110.717 86.4815 110.717 86.7726V97.0127H122.359V86.7726C122.359 86.4815 122.438 86.2434 122.595 86.0582C122.78 85.8729 123.016 85.7803 123.306 85.7803H126.857C127.147 85.7803 127.384 85.8729 127.568 86.0582C127.752 86.2434 127.844 86.4815 127.844 86.7726V112.611C127.844 112.902 127.752 113.14 127.568 113.325C127.384 113.484 127.147 113.563 126.857 113.563H123.306C123.043 113.563 122.819 113.471 122.635 113.286C122.451 113.1 122.359 112.876 122.359 112.611V101.974H110.717V112.611C110.717 112.876 110.625 113.1 110.441 113.286C110.283 113.471 110.059 113.563 109.77 113.563H106.179Z" fill="#4286F4"/>
<path d="M134.928 113.563C134.639 113.563 134.402 113.471 134.218 113.286C134.06 113.1 133.981 112.862 133.981 112.571V86.7726C133.981 86.4815 134.073 86.2434 134.257 86.0582C134.441 85.8729 134.678 85.7803 134.968 85.7803H138.519C138.809 85.7803 139.032 85.8729 139.19 86.0582C139.374 86.2434 139.466 86.4815 139.466 86.7726V104.99L152.45 86.4154C152.739 85.992 153.12 85.7803 153.594 85.7803H156.869C157.159 85.7803 157.382 85.8729 157.54 86.0582C157.724 86.2434 157.817 86.4815 157.817 86.7726V112.611C157.817 112.876 157.724 113.1 157.54 113.286C157.382 113.471 157.159 113.563 156.869 113.563H153.318C153.028 113.563 152.792 113.484 152.607 113.325C152.423 113.14 152.331 112.902 152.331 112.611V94.7503L139.387 112.928C139.23 113.14 139.072 113.299 138.914 113.405C138.756 113.511 138.532 113.563 138.243 113.563H134.928Z" fill="#4286F4"/>
<path d="M184.918 119.12C184.655 119.12 184.432 119.028 184.247 118.842C184.063 118.684 183.971 118.459 183.971 118.168V113.563H164.911C164.621 113.563 164.384 113.471 164.2 113.286C164.042 113.1 163.964 112.862 163.964 112.571V86.7329C163.964 86.4418 164.056 86.2169 164.24 86.0582C164.424 85.8729 164.648 85.7803 164.911 85.7803H168.502C168.791 85.7803 169.015 85.8729 169.173 86.0582C169.357 86.2169 169.449 86.4418 169.449 86.7329V108.602H181.09V86.7329C181.09 86.4418 181.182 86.2169 181.367 86.0582C181.551 85.8729 181.774 85.7803 182.038 85.7803H185.589C185.879 85.7803 186.115 85.8729 186.299 86.0582C186.484 86.2169 186.576 86.4418 186.576 86.7329V108.602H188.47C188.759 108.602 188.996 108.695 189.18 108.88C189.364 109.065 189.457 109.29 189.457 109.555V118.168C189.457 118.432 189.364 118.657 189.18 118.842C188.996 119.028 188.759 119.12 188.47 119.12H184.918Z" fill="#4286F4"/>
<path d="M192.134 113.563C191.923 113.563 191.726 113.484 191.542 113.325C191.384 113.167 191.305 112.968 191.305 112.73L191.384 112.373L200.894 86.7726C201.078 86.1111 201.539 85.7803 202.275 85.7803H206.577C207.261 85.7803 207.721 86.1111 207.958 86.7726L217.469 112.373C217.495 112.452 217.508 112.571 217.508 112.73C217.508 112.968 217.429 113.167 217.271 113.325C217.114 113.484 216.929 113.563 216.719 113.563H213.286C212.944 113.563 212.681 113.484 212.496 113.325C212.312 113.167 212.194 112.995 212.141 112.809L210.286 107.967H198.566L196.711 112.809C196.501 113.312 196.119 113.563 195.567 113.563H192.134ZM208.905 103.403L204.406 91.1385L199.947 103.403H208.905Z" fill="#4286F4"/>
<path d="M231.157 113.563C230.894 113.563 230.671 113.471 230.486 113.286C230.302 113.1 230.21 112.876 230.21 112.611V86.7726C230.21 86.4815 230.289 86.2434 230.447 86.0582C230.631 85.8729 230.868 85.7803 231.157 85.7803H234.748C235.038 85.7803 235.261 85.8729 235.419 86.0582C235.604 86.2434 235.696 86.4815 235.696 86.7726V97.0127H247.337V86.7726C247.337 86.4815 247.416 86.2434 247.574 86.0582C247.758 85.8729 247.995 85.7803 248.284 85.7803H251.836C252.125 85.7803 252.362 85.8729 252.546 86.0582C252.73 86.2434 252.822 86.4815 252.822 86.7726V112.611C252.822 112.902 252.73 113.14 252.546 113.325C252.362 113.484 252.125 113.563 251.836 113.563H248.284C248.021 113.563 247.798 113.471 247.613 113.286C247.429 113.1 247.337 112.876 247.337 112.611V101.974H235.696V112.611C235.696 112.876 235.604 113.1 235.419 113.286C235.261 113.471 235.038 113.563 234.748 113.563H231.157Z" fill="#4286F4"/>
<path d="M259.907 113.563C259.644 113.563 259.42 113.471 259.236 113.286C259.052 113.1 258.96 112.876 258.96 112.611V86.7726C258.96 86.4815 259.038 86.2434 259.196 86.0582C259.38 85.8729 259.617 85.7803 259.907 85.7803H277.27C277.56 85.7803 277.797 85.8729 277.981 86.0582C278.165 86.2434 278.257 86.4815 278.257 86.7726V89.3921C278.257 89.6832 278.165 89.9213 277.981 90.1066C277.797 90.2653 277.56 90.3447 277.27 90.3447H264.287V97.3699H276.402C276.692 97.3699 276.928 97.4625 277.112 97.6477C277.297 97.8065 277.389 98.0314 277.389 98.3224V100.783C277.389 101.074 277.297 101.312 277.112 101.498C276.928 101.656 276.692 101.736 276.402 101.736H264.287V108.999H277.586C277.875 108.999 278.112 109.092 278.296 109.277C278.48 109.462 278.573 109.7 278.573 109.991V112.611C278.573 112.902 278.48 113.14 278.296 113.325C278.112 113.484 277.875 113.563 277.586 113.563H259.907Z" fill="#4286F4"/>
<path d="M293.473 113.563C293.21 113.563 292.986 113.471 292.802 113.286C292.618 113.1 292.526 112.876 292.526 112.611V86.7726C292.526 86.4815 292.605 86.2434 292.763 86.0582C292.947 85.8729 293.184 85.7803 293.473 85.7803H297.064C297.354 85.7803 297.577 85.8729 297.735 86.0582C297.919 86.2434 298.011 86.4815 298.011 86.7726V97.0127H309.653V86.7726C309.653 86.4815 309.732 86.2434 309.89 86.0582C310.074 85.8729 310.311 85.7803 310.6 85.7803H314.152C314.441 85.7803 314.678 85.8729 314.862 86.0582C315.046 86.2434 315.138 86.4815 315.138 86.7726V112.611C315.138 112.902 315.046 113.14 314.862 113.325C314.678 113.484 314.441 113.563 314.152 113.563H310.6C310.337 113.563 310.113 113.471 309.929 113.286C309.745 113.1 309.653 112.876 309.653 112.611V101.974H298.011V112.611C298.011 112.876 297.919 113.1 297.735 113.286C297.577 113.471 297.354 113.563 297.064 113.563H293.473Z" fill="#4286F4"/>
<path d="M319.578 113.563C319.368 113.563 319.171 113.484 318.987 113.325C318.829 113.167 318.75 112.968 318.75 112.73L318.829 112.373L328.339 86.7726C328.523 86.1111 328.984 85.7803 329.72 85.7803H334.022C334.706 85.7803 335.166 86.1111 335.403 86.7726L344.914 112.373C344.94 112.452 344.953 112.571 344.953 112.73C344.953 112.968 344.874 113.167 344.716 113.325C344.558 113.484 344.374 113.563 344.164 113.563H340.731C340.389 113.563 340.125 113.484 339.941 113.325C339.757 113.167 339.639 112.995 339.586 112.809L337.731 107.967H326.011L324.156 112.809C323.946 113.312 323.564 113.563 323.012 113.563H319.578ZM336.35 103.403L331.851 91.1385L327.392 103.403H336.35Z" fill="#4286F4"/>
<path d="M349.584 113.563C349.295 113.563 349.058 113.471 348.874 113.286C348.716 113.1 348.637 112.862 348.637 112.571V86.7726C348.637 86.4815 348.729 86.2434 348.914 86.0582C349.098 85.8729 349.335 85.7803 349.624 85.7803H353.176C353.465 85.7803 353.689 85.8729 353.846 86.0582C354.031 86.2434 354.123 86.4815 354.123 86.7726V104.99L367.106 86.4154C367.395 85.992 367.777 85.7803 368.25 85.7803H371.526C371.815 85.7803 372.039 85.8729 372.197 86.0582C372.381 86.2434 372.473 86.4815 372.473 86.7726V112.611C372.473 112.876 372.381 113.1 372.197 113.286C372.039 113.471 371.815 113.563 371.526 113.563H367.974C367.685 113.563 367.448 113.484 367.264 113.325C367.08 113.14 366.988 112.902 366.988 112.611V94.7503L354.044 112.928C353.886 113.14 353.728 113.299 353.57 113.405C353.412 113.511 353.189 113.563 352.899 113.563H349.584ZM360.634 84.1927C358.345 84.1927 356.675 83.7032 355.622 82.7242C354.57 81.7187 354.044 80.4354 354.044 78.8742C354.044 78.6626 354.11 78.4906 354.241 78.3583C354.373 78.1995 354.557 78.1201 354.794 78.1201H357.082C357.319 78.1201 357.503 78.1995 357.635 78.3583C357.766 78.4906 357.832 78.6626 357.832 78.8742C357.832 80.3825 358.766 81.1366 360.634 81.1366C362.476 81.1366 363.396 80.3825 363.396 78.8742C363.396 78.6626 363.462 78.4906 363.594 78.3583C363.725 78.1995 363.909 78.1201 364.146 78.1201H366.435C366.672 78.1201 366.856 78.1995 366.988 78.3583C367.119 78.4906 367.185 78.6626 367.185 78.8742C367.185 80.4354 366.659 81.7187 365.606 82.7242C364.554 83.7032 362.897 84.1927 360.634 84.1927Z" fill="#4286F4"/>
<path d="M377.515 119.08C377.225 119.08 376.989 118.988 376.805 118.803C376.647 118.644 376.568 118.419 376.568 118.128V109.555C376.568 109.264 376.66 109.039 376.844 108.88C377.028 108.695 377.252 108.602 377.515 108.602H378.304C379.541 108.602 380.448 107.464 381.027 105.189C381.606 102.887 381.895 99.4999 381.895 95.0282V86.7329C381.895 86.4418 381.987 86.2169 382.172 86.0582C382.356 85.8729 382.579 85.7803 382.842 85.7803H399.772C400.061 85.7803 400.298 85.8729 400.482 86.0582C400.666 86.2434 400.759 86.4815 400.759 86.7726V108.602H402.653C402.942 108.602 403.179 108.695 403.363 108.88C403.547 109.065 403.639 109.29 403.639 109.555V118.128C403.639 118.392 403.547 118.617 403.363 118.803C403.179 118.988 402.942 119.08 402.653 119.08H399.101C398.838 119.08 398.614 118.988 398.43 118.803C398.246 118.644 398.154 118.419 398.154 118.128V113.563H382.053V118.128C382.053 118.419 381.961 118.644 381.777 118.803C381.593 118.988 381.356 119.08 381.067 119.08H377.515ZM395.273 108.602V90.7416H387.183V95.7426C387.183 98.9972 386.999 101.67 386.631 103.76C386.289 105.85 385.749 107.464 385.013 108.602H395.273Z" fill="#4286F4"/>
<path d="M408.971 113.563C408.708 113.563 408.485 113.471 408.301 113.286C408.116 113.1 408.024 112.876 408.024 112.611V86.7726C408.024 86.4815 408.103 86.2434 408.261 86.0582C408.445 85.8729 408.682 85.7803 408.971 85.7803H426.335C426.624 85.7803 426.861 85.8729 427.045 86.0582C427.23 86.2434 427.322 86.4815 427.322 86.7726V89.3921C427.322 89.6832 427.23 89.9213 427.045 90.1066C426.861 90.2653 426.624 90.3447 426.335 90.3447H413.352V97.3699H425.467C425.756 97.3699 425.993 97.4625 426.177 97.6477C426.361 97.8065 426.453 98.0314 426.453 98.3224V100.783C426.453 101.074 426.361 101.312 426.177 101.498C425.993 101.656 425.756 101.736 425.467 101.736H413.352V108.999H426.651C426.94 108.999 427.177 109.092 427.361 109.277C427.545 109.462 427.637 109.7 427.637 109.991V112.611C427.637 112.902 427.545 113.14 427.361 113.325C427.177 113.484 426.94 113.563 426.651 113.563H408.971Z" fill="#4286F4"/>
<path d="M433.52 113.563C433.257 113.563 433.033 113.471 432.849 113.286C432.665 113.1 432.573 112.876 432.573 112.611V86.7726C432.573 86.4815 432.652 86.2434 432.81 86.0582C432.994 85.8729 433.231 85.7803 433.52 85.7803H437.111C437.401 85.7803 437.624 85.8729 437.782 86.0582C437.966 86.2434 438.058 86.4815 438.058 86.7726V97.0127H449.7V86.7726C449.7 86.4815 449.779 86.2434 449.937 86.0582C450.121 85.8729 450.358 85.7803 450.647 85.7803H454.199C454.488 85.7803 454.725 85.8729 454.909 86.0582C455.093 86.2434 455.185 86.4815 455.185 86.7726V112.611C455.185 112.902 455.093 113.14 454.909 113.325C454.725 113.484 454.488 113.563 454.199 113.563H450.647C450.384 113.563 450.16 113.471 449.976 113.286C449.792 113.1 449.7 112.876 449.7 112.611V101.974H438.058V112.611C438.058 112.876 437.966 113.1 437.782 113.286C437.624 113.471 437.401 113.563 437.111 113.563H433.52Z" fill="#4286F4"/>
<path d="M459.625 113.563C459.415 113.563 459.218 113.484 459.033 113.325C458.876 113.167 458.797 112.968 458.797 112.73L458.876 112.373L468.386 86.7726C468.57 86.1111 469.031 85.7803 469.767 85.7803H474.069C474.753 85.7803 475.213 86.1111 475.45 86.7726L484.961 112.373C484.987 112.452 485 112.571 485 112.73C485 112.968 484.921 113.167 484.763 113.325C484.605 113.484 484.421 113.563 484.211 113.563H480.777C480.435 113.563 480.172 113.484 479.988 113.325C479.804 113.167 479.686 112.995 479.633 112.809L477.778 107.967H466.058L464.203 112.809C463.993 113.312 463.611 113.563 463.059 113.563H459.625ZM476.397 103.403L471.898 91.1385L467.439 103.403H476.397Z" fill="#4286F4"/>
</svg>
