<svg width="32" height="32" viewBox="0 0 32 32" fill="none" xmlns="http://www.w3.org/2000/svg">
<path d="M30.2979 0H1.70213C0.761872 0 0 0.762213 0 1.70213V30.2979C0 31.2378 0.761872 32 1.70213 32H30.2979C31.2381 32 32 31.2378 32 30.2979V1.70213C32 0.762213 31.2381 0 30.2979 0ZM25.4873 18.0231C26.3595 18.8742 27.2817 19.6756 28.065 20.6162C28.4116 21.0315 28.7384 21.4604 28.9872 21.9435C29.3416 22.6325 29.0216 23.3893 28.4041 23.4298L24.5723 23.4288C23.583 23.5101 22.7952 23.1118 22.1307 22.4354C21.6014 21.8958 21.1091 21.3198 20.5988 20.7626C20.3908 20.5334 20.1702 20.318 19.9094 20.1477C19.3872 19.8087 18.9334 19.9122 18.6335 20.4572C18.3285 21.0121 18.258 21.6276 18.2301 22.2461C18.1876 23.15 17.9152 23.3859 17.0087 23.4277C15.0717 23.519 13.233 23.2249 11.5251 22.2489C10.0174 21.3876 8.8514 20.1709 7.83557 18.7949C5.85566 16.1113 4.3394 13.1656 2.9777 10.1355C2.67098 9.45294 2.89532 9.08766 3.64732 9.0737C4.89872 9.04885 6.14979 9.05225 7.39949 9.07234C7.90877 9.08017 8.24545 9.37157 8.44051 9.85157C9.11626 11.5146 9.94553 13.0969 10.9838 14.5641C11.2606 14.9546 11.5431 15.3443 11.9449 15.6204C12.3888 15.9254 12.7271 15.825 12.9365 15.3297C13.0703 15.0138 13.1282 14.6781 13.1568 14.3404C13.2562 13.1843 13.2681 12.0283 13.0965 10.8766C12.9893 10.1563 12.5835 9.69089 11.8652 9.55472C11.4996 9.48528 11.553 9.34979 11.7307 9.14111C12.0391 8.77957 12.3299 8.55626 12.9072 8.55626L17.2378 8.55557C17.9207 8.68902 18.0725 8.9954 18.1654 9.68272L18.1695 14.494C18.1624 14.7602 18.3026 15.5486 18.7806 15.7229C19.1629 15.8492 19.4165 15.5425 19.6453 15.2994C20.6829 14.1981 21.4223 12.8974 22.0851 11.5517C22.3769 10.9583 22.6298 10.3435 22.8749 9.72834C23.0563 9.27319 23.3403 9.04919 23.8536 9.05736L28.0225 9.06179C28.145 9.06179 28.2706 9.06315 28.3922 9.08323C29.0941 9.20409 29.2865 9.50638 29.0696 10.192C28.7278 11.2688 28.0623 12.1661 27.4114 13.0655C26.7159 14.0272 25.9734 14.9573 25.2831 15.9237C24.6506 16.8102 24.7016 17.2555 25.4873 18.0231Z" fill="#3887FD"/>
</svg>
